<?xml version="1.0" encoding="UTF-8" standalone="no"?>
<svg
   xmlns:ooo="http://xml.openoffice.org/svg/export"
   xmlns:dc="http://purl.org/dc/elements/1.1/"
   xmlns:cc="http://creativecommons.org/ns#"
   xmlns:rdf="http://www.w3.org/1999/02/22-rdf-syntax-ns#"
   xmlns:svg="http://www.w3.org/2000/svg"
   xmlns="http://www.w3.org/2000/svg"
   xmlns:sodipodi="http://sodipodi.sourceforge.net/DTD/sodipodi-0.dtd"
   xmlns:inkscape="http://www.inkscape.org/namespaces/inkscape"
   version="1.2"
   width="364"
   height="182"
   viewBox="0 0 10272.89 5136.4444"
   preserveAspectRatio="xMidYMid"
   clip-path="url(#presentation_clip_path)"
   xml:space="preserve"
   id="svg3229"
   inkscape:version="0.48.4 r9939"
   sodipodi:docname="Generic_turbofan_airplane.svg"
   style="fill-rule:evenodd;stroke-width:28.22200012;stroke-linejoin:round"><metadata
     id="metadata3433"><rdf:RDF><cc:Work
         rdf:about=""><dc:format>image/svg+xml</dc:format><dc:type
           rdf:resource="http://purl.org/dc/dcmitype/StillImage" /></cc:Work></rdf:RDF></metadata><sodipodi:namedview
     pagecolor="#ffffff"
     bordercolor="#666666"
     borderopacity="1"
     objecttolerance="10"
     gridtolerance="10"
     guidetolerance="10"
     inkscape:pageopacity="0"
     inkscape:pageshadow="2"
     inkscape:window-width="1280"
     inkscape:window-height="975"
     id="namedview3431"
     showgrid="false"
     fit-margin-top="0"
     fit-margin-left="0"
     fit-margin-right="0"
     fit-margin-bottom="0"
     inkscape:zoom="2.048127"
     inkscape:cx="273.54719"
     inkscape:cy="22.27465"
     inkscape:window-x="0"
     inkscape:window-y="25"
     inkscape:window-maximized="1"
     inkscape:current-layer="svg3229" /><defs
     class="ClipPathGroup"
     id="defs3231"><clipPath
       id="presentation_clip_path"
       clipPathUnits="userSpaceOnUse"><rect
         x="0"
         y="0"
         width="29700"
         height="21000"
         id="rect3234" /></clipPath></defs><defs
     class="TextShapeIndex"
     id="defs3236"><g
       ooo:slide="id1"
       ooo:id-list="id3 id4 id5 id6 id7 id8 id9 id10 id11 id12 id13 id14 id15 id16 id17 id18 id19 id20 id21 id22 id23 id24 id25 id26 id27 id28"
       id="g3238" /></defs><defs
     class="EmbeddedBulletChars"
     id="defs3240"><g
       id="bullet-char-template(57356)"
       transform="scale(4.8828125e-4,-4.8828125e-4)"><path
         d="M 580,1141 1163,571 580,0 -4,571 580,1141 z"
         id="path3243"
         inkscape:connector-curvature="0" /></g><g
       id="bullet-char-template(57354)"
       transform="scale(4.8828125e-4,-4.8828125e-4)"><path
         d="m 8,1128 1129,0 L 1137,0 8,0 8,1128 z"
         id="path3246"
         inkscape:connector-curvature="0" /></g><g
       id="bullet-char-template(10146)"
       transform="scale(4.8828125e-4,-4.8828125e-4)"><path
         d="M 174,0 602,739 174,1481 1456,739 174,0 z m 1184,739 -1049,607 350,-607 699,0 z"
         id="path3249"
         inkscape:connector-curvature="0" /></g><g
       id="bullet-char-template(10132)"
       transform="scale(4.8828125e-4,-4.8828125e-4)"><path
         d="M 2015,739 1276,0 717,0 l 543,543 -1086,0 0,393 1086,0 -543,545 557,0 741,-742 z"
         id="path3252"
         inkscape:connector-curvature="0" /></g><g
       id="bullet-char-template(10007)"
       transform="scale(4.8828125e-4,-4.8828125e-4)"><path
         d="m 0,-2 c -7,16 -16,29 -25,39 l 381,530 c -94,256 -141,385 -141,387 0,25 13,38 40,38 9,0 21,-2 34,-5 21,4 42,12 65,25 l 27,-13 111,-251 280,301 64,-25 24,25 c 21,-10 41,-24 62,-43 C 886,937 835,863 770,784 769,783 710,716 594,584 L 774,223 c 0,-27 -21,-55 -63,-84 l 16,-20 C 717,90 699,76 672,76 641,76 570,178 457,381 L 164,-76 c -22,-34 -53,-51 -92,-51 -42,0 -63,17 -64,51 -7,9 -10,24 -10,44 0,9 1,19 2,30 z"
         id="path3255"
         inkscape:connector-curvature="0" /></g><g
       id="bullet-char-template(10004)"
       transform="scale(4.8828125e-4,-4.8828125e-4)"><path
         d="M 285,-33 C 182,-33 111,30 74,156 52,228 41,333 41,471 c 0,78 14,145 41,201 34,71 87,106 158,106 53,0 88,-31 106,-94 l 23,-176 c 8,-64 28,-97 59,-98 l 735,706 c 11,11 33,17 66,17 42,0 63,-15 63,-46 l 0,-122 c 0,-36 -10,-64 -30,-84 L 442,47 C 390,-6 338,-33 285,-33 z"
         id="path3258"
         inkscape:connector-curvature="0" /></g><g
       id="bullet-char-template(9679)"
       transform="scale(4.8828125e-4,-4.8828125e-4)"><path
         d="M 813,0 C 632,0 489,54 383,161 276,268 223,411 223,592 c 0,181 53,324 160,431 106,107 249,161 430,161 179,0 323,-54 432,-161 108,-107 162,-251 162,-431 0,-180 -54,-324 -162,-431 C 1136,54 992,0 813,0 z"
         id="path3261"
         inkscape:connector-curvature="0" /></g><g
       id="bullet-char-template(8226)"
       transform="scale(4.8828125e-4,-4.8828125e-4)"><path
         d="m 346,457 c -73,0 -137,26 -191,78 -54,51 -81,114 -81,188 0,73 27,136 81,188 54,52 118,78 191,78 73,0 134,-26 185,-79 51,-51 77,-114 77,-187 0,-75 -25,-137 -76,-188 -50,-52 -112,-78 -186,-78 z"
         id="path3264"
         inkscape:connector-curvature="0" /></g><g
       id="bullet-char-template(8211)"
       transform="scale(4.8828125e-4,-4.8828125e-4)"><path
         d="m -4,459 1139,0 0,147 -1139,0 0,-147 z"
         id="path3267"
         inkscape:connector-curvature="0" /></g></defs><defs
     class="TextEmbeddedBitmaps"
     id="defs3269" /><g
     id="g3271"
     transform="translate(-110.4846,158.23717)"><g
       id="id2"
       class="Master_Slide"><g
         id="bg-id2"
         class="Background" /><g
         id="bo-id2"
         class="BackgroundObjects" /></g></g><g
     class="SlideGroup"
     id="g3276"
     transform="translate(-8521.3016,-7216.4628)"><g
       id="g3278"><g
         id="id1"
         class="Slide"
         clip-path="url(#presentation_clip_path)"><g
           class="Page"
           id="g3281"><g
             class="Group"
             id="g3283"><g
               class="Group"
               id="g3285"><g
                 class="com.sun.star.drawing.CustomShape"
                 id="g3287"><g
                   id="id3"><path
                     d="m 14873,10516 c 62,0 111,133 111,308 0,175 -49,309 -111,309 -62,0 -110,-134 -110,-309 0,-175 48,-308 110,-308 z m -110,0 0,0 z m 222,619 0,0 z"
                     id="path3290"
                     inkscape:connector-curvature="0"
                     style="fill:#000000;stroke:none" /></g></g><g
                 class="com.sun.star.drawing.CustomShape"
                 id="g3292"><g
                   id="id4"><path
                     d="m 14109,10364 c 468,0 826,94 826,217 0,123 -358,217 -826,217 -468,0 -825,-94 -825,-217 0,-123 357,-217 825,-217 z m -825,0 0,0 z m 1652,436 0,0 z"
                     id="path3295"
                     inkscape:connector-curvature="0"
                     style="fill:#000000;stroke:none" /></g></g><g
                 class="com.sun.star.drawing.CustomShape"
                 id="g3297"><g
                   id="id5"><path
                     d="m 14109,10829 c 468,0 826,94 826,217 0,123 -358,217 -826,217 -468,0 -825,-94 -825,-217 0,-123 357,-217 825,-217 z m -825,0 0,0 z m 1652,436 0,0 z"
                     id="path3300"
                     inkscape:connector-curvature="0"
                     style="fill:#000000;stroke:none" /></g></g><g
                 class="com.sun.star.drawing.CustomShape"
                 id="g3302"><g
                   id="id6"><path
                     d="m 14109,10597 c 468,0 826,94 826,217 0,123 -358,217 -826,217 -468,0 -825,-94 -825,-217 0,-123 357,-217 825,-217 z m -825,0 0,0 z m 1652,436 0,0 z"
                     id="path3305"
                     inkscape:connector-curvature="0"
                     style="fill:#000000;stroke:none" /></g></g><g
                 class="com.sun.star.drawing.CustomShape"
                 id="g3307"><g
                   id="id7"><path
                     d="m 13561,10436 c 468,0 825,94 825,217 0,123 -357,217 -825,217 -468,0 -825,-94 -825,-217 0,-123 357,-217 825,-217 z m -825,0 0,0 z m 1651,436 0,0 z"
                     id="path3310"
                     inkscape:connector-curvature="0"
                     style="fill:#000000;stroke:none" /></g></g><g
                 class="com.sun.star.drawing.CustomShape"
                 id="g3312"><g
                   id="id8"><path
                     d="m 13561,10698 c 468,0 825,95 825,218 0,123 -357,218 -825,218 -468,0 -825,-95 -825,-218 0,-123 357,-218 825,-218 z m -825,0 0,0 z m 1651,437 0,0 z"
                     id="path3315"
                     inkscape:connector-curvature="0"
                     style="fill:#000000;stroke:none" /></g></g><g
                 class="com.sun.star.drawing.CustomShape"
                 id="g3317"><g
                   id="id9"><path
                     d="m 13340,10566 c 468,0 825,94 825,217 0,123 -357,217 -825,217 -468,0 -825,-94 -825,-217 0,-123 357,-217 825,-217 z m -825,0 0,0 z m 1651,436 0,0 z"
                     id="path3320"
                     inkscape:connector-curvature="0"
                     style="fill:#000000;stroke:none" /></g></g></g><g
               class="com.sun.star.drawing.CustomShape"
               id="g3322"><g
                 id="id10"><path
                   d="m 17415,9365 c 737,0 1300,195 1300,450 0,255 -563,450 -1300,450 -737,0 -1300,-195 -1300,-450 0,-255 563,-450 1300,-450 z m -1300,0 0,0 z m 2601,901 0,0 z"
                   id="path3325"
                   inkscape:connector-curvature="0"
                   style="fill:#000000;stroke:none" /></g></g><g
               class="com.sun.star.drawing.CustomShape"
               id="g3327"><g
                 id="id11"><path
                   d="m 17014,9054 c 793,0 1400,217 1400,500 0,283 -607,500 -1400,500 -793,0 -1399,-217 -1399,-500 0,-283 606,-500 1399,-500 z m -1399,0 0,0 z m 2801,1001 0,0 z"
                   id="path3330"
                   inkscape:connector-curvature="0"
                   style="fill:#000000;stroke:none" /></g></g><g
               class="com.sun.star.drawing.CustomShape"
               id="g3332"><g
                 id="id12"><path
                   d="m 14165,10261 -3150,0 0,-1196 6300,0 0,1196 -3150,0 z"
                   id="path3335"
                   inkscape:connector-curvature="0"
                   style="fill:#000000;stroke:none" /></g></g><g
               class="com.sun.star.drawing.ClosedBezierShape"
               id="g3337"><g
                 id="id13"><path
                   d="m 16344,9930 c -2231,1149 -5330,2273 -5454,2270 -124,-4 -372,-51 -372,-51 l 1823,-1115 1648,-1391 2355,12 371,66 -371,209 z"
                   id="path3340"
                   inkscape:connector-curvature="0"
                   style="fill:#000000;stroke:none" /></g></g><g
               class="Group"
               id="g3342"><g
                 class="com.sun.star.drawing.CustomShape"
                 id="g3344"><g
                   id="id14"><path
                     d="m 14473,8916 c 62,0 111,133 111,308 0,175 -49,309 -111,309 -62,0 -110,-134 -110,-309 0,-175 48,-308 110,-308 z m -110,0 0,0 z m 222,619 0,0 z"
                     id="path3347"
                     inkscape:connector-curvature="0"
                     style="fill:#000000;stroke:none" /></g></g><g
                 class="com.sun.star.drawing.CustomShape"
                 id="g3349"><g
                   id="id15"><path
                     d="m 13709,8764 c 468,0 826,94 826,217 0,123 -358,217 -826,217 -468,0 -825,-94 -825,-217 0,-123 357,-217 825,-217 z m -825,0 0,0 z m 1652,436 0,0 z"
                     id="path3352"
                     inkscape:connector-curvature="0"
                     style="fill:#000000;stroke:none" /></g></g><g
                 class="com.sun.star.drawing.CustomShape"
                 id="g3354"><g
                   id="id16"><path
                     d="m 13709,9229 c 468,0 826,94 826,217 0,123 -358,217 -826,217 -468,0 -825,-94 -825,-217 0,-123 357,-217 825,-217 z m -825,0 0,0 z m 1652,436 0,0 z"
                     id="path3357"
                     inkscape:connector-curvature="0"
                     style="fill:#000000;stroke:none" /></g></g><g
                 class="com.sun.star.drawing.CustomShape"
                 id="g3359"><g
                   id="id17"><path
                     d="m 13709,8997 c 468,0 826,94 826,217 0,123 -358,217 -826,217 -468,0 -825,-94 -825,-217 0,-123 357,-217 825,-217 z m -825,0 0,0 z m 1652,436 0,0 z"
                     id="path3362"
                     inkscape:connector-curvature="0"
                     style="fill:#000000;stroke:none" /></g></g><g
                 class="com.sun.star.drawing.CustomShape"
                 id="g3364"><g
                   id="id18"><path
                     d="m 13161,8836 c 468,0 825,94 825,217 0,123 -357,217 -825,217 -468,0 -825,-94 -825,-217 0,-123 357,-217 825,-217 z m -825,0 0,0 z m 1651,436 0,0 z"
                     id="path3367"
                     inkscape:connector-curvature="0"
                     style="fill:#000000;stroke:none" /></g></g><g
                 class="com.sun.star.drawing.CustomShape"
                 id="g3369"><g
                   id="id19"><path
                     d="m 13161,9098 c 468,0 825,95 825,218 0,123 -357,218 -825,218 -468,0 -825,-95 -825,-218 0,-123 357,-218 825,-218 z m -825,0 0,0 z m 1651,437 0,0 z"
                     id="path3372"
                     inkscape:connector-curvature="0"
                     style="fill:#000000;stroke:none" /></g></g><g
                 class="com.sun.star.drawing.CustomShape"
                 id="g3374"><g
                   id="id20"><path
                     d="m 12940,8966 c 468,0 825,94 825,217 0,123 -357,217 -825,217 -468,0 -825,-94 -825,-217 0,-123 357,-217 825,-217 z m -825,0 0,0 z m 1651,436 0,0 z"
                     id="path3377"
                     inkscape:connector-curvature="0"
                     style="fill:#000000;stroke:none" /></g></g></g><g
               class="com.sun.star.drawing.PolyPolygonShape"
               id="g3379"><g
                 id="id21"><path
                   d="m 10715,9171 0,94 -107,-188 -214,-187 -1063,-1481 -516,-44 259,1900 1641,-94 z"
                   id="path3382"
                   inkscape:connector-curvature="0"
                   style="fill:#000000;stroke:none" /></g></g><g
               class="com.sun.star.drawing.CustomShape"
               id="g3384"><g
                 id="id22"><path
                   d="m 10672,9066 c 595,-27 1049,83 1049,252 0,169 -455,320 -1049,346 -595,27 -1049,-83 -1049,-252 0,-169 455,-320 1049,-346 z m -1049,47 0,0 z m 2100,506 0,0 z"
                   id="path3387"
                   inkscape:connector-curvature="0"
                   style="fill:#000000;stroke:none" /></g></g><g
               class="com.sun.star.drawing.CustomShape"
               id="g3389"><g
                 id="id23"><path
                   d="m 8659,9283 c 34,0 60,65 60,150 0,85 -26,150 -60,150 -34,0 -59,-65 -59,-150 0,-85 25,-150 59,-150 z m -59,0 0,0 z m 121,301 0,0 z"
                   id="path3392"
                   inkscape:connector-curvature="0"
                   style="fill:#000000;stroke:none" /></g></g><g
               class="com.sun.star.drawing.CustomShape"
               id="g3394"><g
                 id="id24"><path
                   d="m 10571,9089 c 1107,-11 1953,76 1953,200 0,124 -846,227 -1953,238 -1107,11 -1953,-76 -1953,-200 0,-124 846,-227 1953,-238 z m -1953,19 0,0 z m 3907,401 0,0 z"
                   id="path3397"
                   inkscape:connector-curvature="0"
                   style="fill:#000000;stroke:none" /><path
                   d="m 10571,9089 c 1107,-11 1953,76 1953,200 0,124 -846,227 -1953,238 -1107,11 -1953,-76 -1953,-200 0,-124 846,-227 1953,-238 z"
                   id="path3399"
                   inkscape:connector-curvature="0"
                   style="fill:none;stroke:#000000" /><path
                   d="m 8618,9108 0,0 z"
                   id="path3401"
                   inkscape:connector-curvature="0"
                   style="fill:none;stroke:#000000" /><path
                   d="m 12525,9509 0,0 z"
                   id="path3403"
                   inkscape:connector-curvature="0"
                   style="fill:none;stroke:#000000" /></g></g><g
               class="com.sun.star.drawing.CustomShape"
               id="g3405"><g
                 id="id25"><path
                   d="m 10076,9594 c 834,188 1472,441 1472,582 0,142 -638,106 -1472,-82 -834,-189 -1472,-441 -1472,-583 0,-141 638,-106 1472,83 z m -1472,-333 0,0 z m 2946,1167 0,0 z"
                   id="path3408"
                   inkscape:connector-curvature="0"
                   style="fill:#000000;stroke:none" /></g></g><g
               class="com.sun.star.drawing.CustomShape"
               id="g3410"><g
                 id="id26"><path
                   d="m 10665,9366 c 595,0 1050,129 1050,299 0,170 -455,300 -1050,300 -595,0 -1049,-130 -1049,-300 0,-170 454,-299 1049,-299 z m -1049,0 0,0 z m 2101,601 0,0 z"
                   id="path3413"
                   inkscape:connector-curvature="0"
                   style="fill:#000000;stroke:none" /></g></g><g
               class="com.sun.star.drawing.CustomShape"
               id="g3415"><g
                 id="id27"><path
                   d="m 10573,9172 c 1107,-11 1953,76 1953,200 0,124 -846,227 -1953,238 -1107,11 -1953,-76 -1953,-200 0,-124 846,-227 1953,-238 z m -1953,19 0,0 z m 3907,401 0,0 z"
                   id="path3418"
                   inkscape:connector-curvature="0"
                   style="fill:#000000;stroke:none" /><path
                   d="m 10573,9172 c 1107,-11 1953,76 1953,200 0,124 -846,227 -1953,238 -1107,11 -1953,-76 -1953,-200 0,-124 846,-227 1953,-238 z"
                   id="path3420"
                   inkscape:connector-curvature="0"
                   style="fill:none;stroke:#000000" /><path
                   d="m 8620,9191 0,0 z"
                   id="path3422"
                   inkscape:connector-curvature="0"
                   style="fill:none;stroke:#000000" /><path
                   d="m 12527,9592 0,0 z"
                   id="path3424"
                   inkscape:connector-curvature="0"
                   style="fill:none;stroke:#000000" /></g></g><g
               class="com.sun.star.drawing.ClosedBezierShape"
               id="g3426"><g
                 id="id28"><path
                   d="m 16646,9647 c -2213,-873 -5287,-1616 -5410,-1597 -123,19 -369,96 -369,96 l 1809,891 1634,1188 2336,-303 369,-112 -369,-163 z"
                   id="path3429"
                   inkscape:connector-curvature="0"
                   style="fill:#000000;stroke:none" /></g></g></g></g></g></g></g></svg>