<?xml version="1.0" encoding="UTF-8" standalone="no"?>
<svg
   xmlns:dc="http://purl.org/dc/elements/1.1/"
   xmlns:cc="http://creativecommons.org/ns#"
   xmlns:rdf="http://www.w3.org/1999/02/22-rdf-syntax-ns#"
   xmlns:svg="http://www.w3.org/2000/svg"
   xmlns="http://www.w3.org/2000/svg"
   xmlns:sodipodi="http://sodipodi.sourceforge.net/DTD/sodipodi-0.dtd"
   xmlns:inkscape="http://www.inkscape.org/namespaces/inkscape"
   version="1.1"
   id="Layer_1"
   x="0px"
   y="0px"
   viewBox="0 0 1920 1080"
   enable-background="new 0 0 1920 1080"
   xml:space="preserve"
   sodipodi:docname="landscape.svg"
   inkscape:version="0.92.5 (2060ec1f9f, 2020-04-08)"><metadata
   id="metadata285"><rdf:RDF><cc:Work
       rdf:about=""><dc:format>image/svg+xml</dc:format><dc:type
         rdf:resource="http://purl.org/dc/dcmitype/StillImage" /></cc:Work></rdf:RDF></metadata><defs
   id="defs283" /><sodipodi:namedview
   pagecolor="#ffffff"
   bordercolor="#666666"
   borderopacity="1"
   objecttolerance="10"
   gridtolerance="10"
   guidetolerance="10"
   inkscape:pageopacity="0"
   inkscape:pageshadow="2"
   inkscape:window-width="1920"
   inkscape:window-height="1163"
   id="namedview281"
   showgrid="false"
   inkscape:zoom="0.29831068"
   inkscape:cx="670.96935"
   inkscape:cy="485.61539"
   inkscape:window-x="1920"
   inkscape:window-y="0"
   inkscape:window-maximized="1"
   inkscape:current-layer="g278" />
<g
   id="g278">
	
	
	
	
	
	
	
	
	
	
	
	
	
	
	
	
	
	
	
	
	
	
	
	
	
	
	
	
	
	
	
	
	
	
	
	
	
	
	
	
	
	
	
	
	
	
	
	
	
	
	
	
	
	
	
	
	
	
	
	
	
	
	
	
	
	
	
	
	
	
	
	
	
	
	
	
	
	
	
	
	
	
	
	
	
	
	
	
	
	
	
	
	
	
	
	
	
	
	
	
	
	
	
	
	
	
	
	
	
	
	
	
	
	
	
	
	
	
	
	
	
	
	
	
	
	
	
	
	
	<rect
   style="color:#000000;display:inline;overflow:visible;visibility:visible;opacity:1;fill:#d7eef4;fill-opacity:1;fill-rule:nonzero;stroke:none;stroke-width:1.0965035;stroke-linecap:round;stroke-linejoin:bevel;stroke-miterlimit:4;stroke-dasharray:none;stroke-dashoffset:0;stroke-opacity:1;marker:none;enable-background:accumulate"
   id="rect843"
   width="1919.5858"
   height="896.00189"
   x="0.82178128"
   y="-3.2602086" /><g
   id="g1140"
   transform="translate(73.4816,-694.5172)"
   style="fill:#30422b;fill-opacity:1;stroke:#30422b;stroke-opacity:1;stroke-width:1.1;stroke-miterlimit:4;stroke-dasharray:none"><path
     inkscape:connector-curvature="0"
     id="path112"
     d="m 1759.2587,1134.0087 c -5.02,2.78 -3.1299,9.279 -4.6699,13.879 -2.76,-2.15 -5.2709,-5.0094 -8.9609,-5.3594 1.58,6.36 6.7897,10.9308 8.7597,17.1308 0.85,2.62 0.9313,5.4102 1.0313,8.1602 -2.25,-3.1 -3.7713,-6.9308 -7.1113,-9.0508 -3.96,-2.48 -8.6395,-3.3895 -13.1895,-4.0195 0.8,2.32 2.7696,3.8203 4.5996,5.3203 -2.14,2.08 -4.6688,3.7784 -6.2988,6.3184 2.89,0.96 5.9402,1.201 8.9902,1.291 -1.78,2.46 -3.4104,5.0299 -4.9004,7.6699 3.15,2.37 6.9797,3.3202 10.6797,4.4902 4.11,1.34 5.6804,7.0807 2.9004,10.3907 -1.78,1.03 -3.4599,-0.4909 -4.6699,-1.6309 -3.4,-3.18 -4.9206,-7.7305 -7.8906,-11.2305 -2.21,-2.53 -5.4307,-0.1405 -7.9707,0.4395 -1.75,-1.47 -3.4682,-2.9592 -5.1582,-4.4492 -0.73,0.07 -2.1707,0.221 -2.8907,0.291 0.96,2.53 2.1207,4.9883 3.2207,7.4883 -2.13,0.46 -4.24,0.9404 -6.33,1.4804 1.86,3.07 4.329,5.7203 6.289,8.7403 -0.95,0.3 -1.8793,0.6194 -2.7793,0.9394 -1.41,0.65 -2.7412,1.4114 -4.0312,2.1914 3.15,4.87 9.0811,5.9186 14.2011,7.5586 0.05,0.31 0.1588,0.9515 0.2188,1.2715 -3.33,1.35 -6.8492,2.0998 -10.1992,3.3398 2.18,1.7 4.5705,3.1096 7.0605,4.3496 0.05,0.55 0.1492,1.6495 0.1992,2.1895 -2.88,0.58 -5.8095,1.1909 -8.2695,2.8809 -5.54,3.56 -11.1503,7.01 -16.5703,10.75 2.62,2.35 5.7804,3.9489 9.1504,4.9589 l 0.75,-0.3085 c 1.8,-0.53 3.6801,-0.7618 5.5801,-0.8418 0.6,1.52 1.159,3.1014 2.039,4.5214 3.07,1.8 5.8303,-1.4008 8.7403,-2.1308 1.86,0.05 3.6695,0.6104 5.5195,0.9804 -0.89,2.1 -1.2897,4.649 -3.1797,6.129 -4.8,-0.07 -9.0205,-2.8484 -13.5605,-4.0684 -2.05,1.18 -4.0493,2.4188 -5.9493,3.7988 -2.14,1.48 -4.3596,3.3401 -7.0996,3.3301 -2.54,-0.09 -4.9307,-1.0798 -7.3007,-1.8398 -4.45,1.06 -8.8598,2.34 -13.0098,4.25 3.04,2.15 6.4401,3.7009 9.5801,5.7109 1.77,1.59 3.3509,3.3784 4.9609,5.1484 4.69,-1.1 9.6488,-0.859 14.2188,0.711 1.68,1.33 2.8414,3.2996 4.7714,4.3496 1.74,0.31 3.5482,0.09 5.3282,-0.1602 2.98,-1.54 6.1014,-2.92 9.5214,-3 -1.6,2.53 -3.6303,4.7603 -6.0703,6.4903 -4.46,2.8 -9.7595,4.3304 -15.0195,3.7304 -4.2,-0.23 -7.5905,-2.9307 -11.0605,-4.9707 -1.34,1.55 -2.3004,3.5804 -4.0704,4.6504 -2.07,-0.46 -3.6804,-2.0592 -5.7304,-2.4492 -1.09,0.46 -2.0803,1.0691 -3.0703,1.6191 -2.13,1.26 -4.65,1.1707 -7,1.3907 0.73,0.66 1.4702,1.3295 2.2402,2.0195 1.98,1.8 3.7402,3.8791 5.9902,5.3691 1.94,1 4.1496,1.2303 6.2696,1.7403 2.14,4.74 7.1815,6.9303 9.8515,11.3203 4.33,1.34 8.3101,-1.9204 12.5801,-2.1504 3.03,-0.05 6.0301,0.6812 9.0801,0.5312 2.33,-0.22 4.4986,-1.2108 6.8086,-1.6308 2.08,0.74 0.1413,2.7694 -1.1387,3.1894 -6.84,3.47 -13.8005,7.771 -21.7305,7.711 -4.46,0.13 -8.5996,-1.6811 -12.5996,-3.3711 0.16,2.34 0.07,4.7017 -0.4101,7.0117 -4.99,0.22 -9.6606,-3.9101 -14.5606,-1.5801 -3.97,1.66 -7.96,3.3497 -12.25,3.9297 3.59,3.2 7.3909,6.2388 10.3809,10.0488 2.31,2.74 3.4897,6.3513 6.1797,8.7813 5.25,1.1 10.7395,-0.2106 16.0195,1.1094 5.13,1.27 10.4398,1.0992 15.5898,-0.051 -4.04,5.38 -10.6196,8.5909 -17.3496,8.4609 -4.83,0.14 -9.0493,-2.6496 -13.7793,-3.0996 -1.29,1.66 -2.5718,3.309 -3.8418,4.959 -3.92,-0.06 -8.0182,-2.0496 -11.7382,-0.1 -2.56,1.3 -6.1218,2.421 -6.8418,5.541 -0.21,3.53 3.6109,4.79 6.2109,6 2.81,0.96 4.5005,3.4897 6.3105,5.6797 2.88,0.16 5.7697,0.2397 8.6797,0.2597 -1.15,1.86 -2.1898,3.7893 -3.0898,5.7793 5.62,4.38 13.619,0.6098 19.209,4.7598 -10.72,3.95 -22.2699,2.3608 -33.4199,2.5508 -0.13,1.15 -0.2593,2.3105 -0.1993,3.4805 1.19,1.43 2.739,2.5096 4.209,3.6796 -0.89,1.33 -1.7596,2.6693 -2.5996,4.0293 3.42,0.77 6.9306,0.3403 10.3906,-0.01 -2.04,3.18 -5.8311,4.6008 -9.4511,4.8808 -6.84,0.56 -12.9491,-3.7296 -19.7891,-3.1796 0.56,5.78 1.4895,12.5595 6.7695,16.0195 6.21,4.23 14.0199,2.8805 21.0899,3.2305 -9.8,6.24 -21.8701,6.3183 -33.0801,5.8183 1.75,-1.59 3.451,-3.2595 5.041,-5.0195 -6.38,-2.25 -13.2296,0.4093 -19.5996,-1.7207 6.41,-3.33 13.1886,-7.2885 16.5586,-13.9785 -9.12,-2.89 -19.1002,0.46 -27.9902,-3.5 5.79,-11.5 20.4415,-12.4715 28.8515,-21.2715 -5.28,-0.59 -10.7001,-3.479 -15.8301,-0.709 0.18,-2.18 0.35,-4.3495 0.5,-6.5195 -2.91,-0.42 -5.8311,-0.1603 -8.7011,0.2597 0.05,-0.57 0.1707,-1.6997 0.2207,-2.2597 4.27,-1.94 8.5602,-4.0015 11.9902,-7.2715 0.29,-1.31 0.5899,-2.6182 0.9199,-3.9082 -4.38,-1.15 -8.9107,-1.7203 -13.2207,-3.0703 -3.22,-1.5 -6.8302,-3.0306 -8.2402,-6.5606 2.37,0.67 4.7509,1.301 7.2109,1.711 0.9,-1.26 1.83,-2.5213 2.75,-3.7813 1.71,0.19 3.43,0.371 5.17,0.541 -0.01,-1.42 -0.061,-2.8305 0.1191,-4.2305 2.66,-0.82 5.6004,-0.7011 8.1504,-1.9511 0.09,-0.66 0.2811,-1.9594 0.3711,-2.6094 -2.31,-0.41 -4.6011,-0.8388 -6.8711,-1.2988 -0.91,-1.25 -1.7995,-2.4812 -2.6895,-3.7012 -2.75,1.37 -5.2409,3.1996 -7.9609,4.5996 -3.82,-0.31 -7.8091,-1.4787 -11.3691,0.6113 -4.85,2.69 -10.7307,2.3692 -15.4707,-0.3808 0.33,-0.94 0.6807,-1.8688 1.0507,-2.7988 1.58,0.64 3.0807,1.8781 4.8907,1.8281 2.52,-0.95 5.8293,-2.279 5.8593,-5.459 4.46,0.15 9.1503,-0.03 13.3203,-1.7695 -0.11,-3.06 -4.4813,-3.1812 -5.8613,-5.7012 2.34,-1.87 4.9616,-3.3393 7.6016,-4.7793 -1.14,-0.81 -2.2516,-1.6102 -3.3516,-2.4102 1.51,-1.76 2.7717,-3.7391 2.9317,-6.1191 -4.11,1.09 -7.5515,3.7289 -11.5215,5.1289 -1.72,0.6 -2.7487,-1.1202 -3.8887,-1.9902 1.03,-1.52 2.0987,-3.0403 3.1387,-4.5703 -0.94,-0.56 -1.85,-1.0987 -2.75,-1.6387 0.24,-5.38 1.7804,-10.5806 4.6504,-15.1406 -4.17,0.57 -8.3791,0.4196 -12.5391,0.8496 1.41,-2.91 3.0095,-5.7287 4.4395,-8.6387 -2.43,0.36 -4.6994,1.2496 -6.8594,2.3496 -0.1,-4.32 -0.2115,-8.6504 -1.0215,-12.9004 -3.45,2.49 -2.6895,7.05 -3.1895,10.75 -2.18,-1.69 -4.4307,-3.3305 -7.0507,-4.2305 1.66,6.79 8.21,11.8214 7.33,19.3614 -1.71,-2.36 -3.0493,-5.1317 -5.5293,-6.7617 -3.05,-1.89 -6.6493,-2.4999 -10.1093,-3.0899 1.05,1.56 2.2101,3.071 3.4101,4.541 -1.51,1.27 -3.261,2.3699 -4.291,4.0899 1.06,1.96 4.2602,0.9304 6.2402,1.4804 -1.13,1.93 -2.2598,3.8704 -3.3398,5.8204 2.65,2.21 6.1202,2.7084 9.1602,4.1484 2.76,1.72 2.6299,5.4109 1.1699,7.9609 -5.55,-1.13 -6.6101,-7.5911 -10.3301,-10.9511 -1.78,-0.85 -3.73,0.3408 -5.5,0.6308 -1.85,-1.45 -3.6791,-3.1396 -6.1191,-3.3496 0.59,2.04 1.3491,4.0295 2.1191,6.0195 -1.55,0.45 -3.0898,0.9104 -4.5898,1.4004 1.53,2.18 3.1494,4.3196 4.6894,6.5196 -1.91,0.81 -3.7598,1.7207 -5.3398,3.0507 3.16,2.97 7.3607,4.1803 11.3007,5.7403 -2.33,1.32 -4.8714,2.1993 -7.4414,2.8593 1.88,1.62 3.8612,3.1497 5.4512,5.0997 -3.35,0.96 -6.6502,2.19 -9.4902,4.25 -3.26,2.37 -7.1908,3.91 -9.8008,7.08 3.25,2.9 7.5612,3.1905 11.7012,2.7305 0.65,1.22 1.3195,2.4495 2.0195,3.6895 3.47,-0.83 6.9701,-2.6205 10.5801,-1.2305 -0.86,1.58 -0.8304,4.3807 -3.1504,4.4707 -3.42,-0.42 -6.5493,-1.9402 -9.7793,-2.9902 -2.87,1.72 -5.4503,3.9804 -8.5703,5.2304 -3.18,0.32 -6.301,-1.0805 -9.461,-0.5605 -2.69,0.37 -5.14,1.5803 -7.5,2.8203 4.04,2.34 8.0009,4.8494 11.3809,8.1094 2.67,-0.3 5.4003,-0.6003 8.0703,0.01 2.85,0.41 4.4895,3.1105 7.0195,4.2305 3.45,-0.21 6.6393,-1.809 10.0293,-2.459 -2.53,4.82 -7.7291,7.74 -13.1191,7.75 -4.01,0.45 -7.5504,-1.7108 -10.9004,-3.5508 -1.11,1.06 -2.19,2.1407 -3.25,3.2207 -1.36,-0.56 -2.6898,-1.1099 -4.0098,-1.6699 -2.52,0.95 -5.05,1.8388 -7.58,2.7188 1.39,1.43 2.7405,2.9311 4.3105,4.2011 1.97,1.6 4.8295,1.62 6.6895,3.42 2.47,2.41 4.9394,4.8589 6.9394,7.7089 3.99,0.2 7.76,-1.5004 11.75,-1.4804 3.79,-0.01 7.5813,-0.2499 11.3613,-0.5899 -2.79,3.14 -6.7807,4.7103 -10.5507,6.3203 -5.21,2.06 -11.5701,2.5114 -16.3301,-0.8886 -1.55,1.36 -3.0393,2.8082 -4.7793,3.9082 -2.57,0.33 -5.2012,-0.6596 -7.7012,0.1504 -3.25,1.05 -6.4001,2.3696 -9.6601,3.3496 2.45,2.21 4.9114,4.4615 6.9414,7.1015 2.58,2.81 4.0287,8.0786 8.7187,7.5586 6.79,0.14 13.5006,1.4299 20.3106,1.3399 -2.47,2.78 -5.6895,4.9609 -9.4395,5.4609 -4.36,0.95 -8.4809,-1.1995 -12.7109,-1.7695 -1.78,0.45 -2.9403,2.0591 -4.3203,3.1191 -4.77,-0.78 -10.0593,-0.4601 -13.5293,3.3399 -1.75,4.83 4.8301,5.2798 7.1601,8.0898 1.99,2.58 5.2898,2.4606 8.2598,2.5606 -0.58,1.57 -1.1094,3.1597 -1.6094,4.7597 4.5,2 9.6704,0.921 14.1504,2.961 -8.02,3.6 -16.9909,1.8089 -25.4609,2.3789 0.09,2.23 1.3111,4.0915 2.7011,5.7715 -0.42,0.96 -0.8407,1.9186 -1.2207,2.8886 2.35,0.09 4.7099,0.2004 7.0899,0.4004 -2.54,2.48 -6.171,3.9702 -9.711,3.1602 -4.12,-0.9 -8.1584,-2.2895 -12.3984,-2.4395 0.58,4.48 1.1984,9.7995 5.3184,12.5195 4.55,3.23 10.4004,2.3 15.6504,2.75 -10,6.11 -22.2091,3.6805 -33.2891,4.7305 5.7,7.14 13.3089,12.7899 22.1289,15.4199 -4.62,1.87 -9.4885,2.9597 -14.2285,4.4297 -5.18,1.64 -10.6715,1.3502 -16.0215,1.4102 1.28,1.43 2.6009,2.8287 3.9609,4.2187 -0.79,1.74 -1.5997,3.4717 -2.4297,5.1817 6.58,2.74 13.0893,5.6596 19.6993,8.3496 6.83,2.82 14.5407,2.4493 21.5507,0.5293 3.52,-0.91 7.3086,-2.2803 10.8086,-0.4903 -2.47,1.82 -5.1888,3.2504 -8.0488,4.3204 -7.32,2.77 -15.06,5.5193 -23,4.2793 -2.8,-0.64 -4.9004,1.6613 -7.4004,2.3613 -3.21,0.38 -6.4906,-0.3396 -9.6406,0.4004 -2.65,0.97 -4.8902,2.7496 -7.1602,4.3496 1.93,1.35 4.2807,1.7188 6.4707,2.5488 4.46,4.53 11.4301,2.4503 16.8301,5.0703 0.3,1.4 0.64,2.82 1,4.25 2.11,-0.24 4.2306,-0.5687 6.3906,-0.4687 2.13,0.53 3.7897,2.1398 5.5997,3.3398 1.9,-0.87 3.7896,-1.7909 5.6796,-2.7109 1.06,1.47 2.0801,2.9795 3.0801,4.5195 -5.43,3.18 -11.1794,6.1309 -17.3594,7.4609 -6.37,1.35 -12.0403,-2.3205 -17.5703,-4.8105 0.18,1.41 0.3699,2.8102 0.5899,4.2402 -3.37,-0.31 -6.7103,-0.7497 -10.0703,-0.9297 2.25,3.29 6.9504,2.8191 9.7304,5.5391 -2.12,0.86 -4.2811,1.5902 -6.4511,2.2402 0.94,0.62 1.9204,1.2504 2.9004,1.9004 -0.94,0.92 -1.8503,1.8606 -2.7403,2.8106 1.67,0.5 3.3909,0.8792 5.1309,1.1992 1.2,2.25 1.7806,5.1608 4.1406,6.5508 2.9,1.72 5.9797,3.17 8.6797,5.25 -7.07,0.43 -14.1099,-0.9102 -21.1699,-0.4102 -14.67,1.04 -29.2913,3.0503 -44.0313,2.9903 -7.9,0.85 -16.2399,-0.4306 -23.6699,2.9394 -6.27,2.46 -12.5894,4.7592 -18.8594,7.1992 -5.86,2.32 -12.2297,2.4409 -18.4297,2.6309 -7.94,0.21 -15.8507,1.3898 -23.8007,1.0098 -0.51,-0.84 -0.9986,-1.6703 -1.4786,-2.4903 -1.39,1.11 -2.7407,2.7909 -4.7207,2.3809 -16.6,-1.56 -33.1693,-3.6514 -49.6093,-6.4414 -12.9,-3.81 -25.1317,-9.6588 -37.9317,-13.7188 -1.4169,0.032 -2.8153,0.2793 -4.2129,0.5352 v 1.7324 h -85.1797 c -5.8174,3.0885 -11.1878,7.0706 -17.3066,9.5215 -11.77,1.74 -23.7801,1.2207 -35.5801,2.7207 -2.43,0.5 -4.3598,2.1595 -6.3398,3.5195 -5.57,4.15 -11.4899,7.7911 -17.0899,11.8711 -2.81,1.85 -5.3707,4.4598 -8.8007,5.0098 -11.23,1.12 -22.5796,0.9905 -33.7696,2.4805 -4.78,1.72 -8.1095,5.9389 -12.2695,8.7089 -4.86,3.47 -8.9995,8.1995 -14.7695,10.1895 -4.55,1.54 -9.2303,2.6608 -13.7403,4.3008 -9.66,3.85 -20.2711,3.169 -30.45108,3.789 -3.36,0.5 -5.8689,-1.9886 -8.7989,-3.0586 -3.63,1.96 -6.5508,5.16 -10.5508,6.42 -3.14,0.8 -6.4191,0.5695 -9.6191,0.7695 -13.18,0.62 -26.3608,2.2799 -39.5508,1.1699 -5.49998,-0.62 -11.55974,0.6806 -16.50974,-2.3594 -16.27,-9.45 -32.76016,-18.5314 -48.91016,-28.1914 -8.47,-5.91 -19.20969,-5.7182 -28.92969,-7.9882 -7.46,-1.17 -13.75086,-5.5907 -20.63086,-8.3907 -4.15,-1.65 -8.09984,-5.0294 -12.83984,-3.9394 -3.66,0.9 -6.49883,-2.0707 -9.79883,-2.9707 -2.34,0.05 -4.58984,0.8 -6.83984,1.33 -3.07,-2.2 -5.85086,-4.7607 -8.63086,-7.3007 -4.92,-4.29 -8.84102,-10.0097 -15.29102,-12.1797 0.3,-1.7 0.63047,-3.3903 0.98047,-5.0703 2.68,0.18 5.35102,0.3211 8.04102,0.4511 -1.6,-1.43 -3.22008,-2.8404 -4.83008,-4.2304 -0.01,-1.13 -0.0295,-2.2399 -0.0195,-3.3399 -3.46,-1.16 -6.73141,-2.7807 -9.94141,-4.4707 -2.9,-1.7 -6.29015,-0.3588 -9.41015,-0.2988 2.06,-0.82 4.27023,-1.3001 6.24023,-2.3301 0.57,-1.26 0.97945,-2.5813 1.43945,-3.8613 2.02,-0.17 4.04032,-0.3095 6.07032,-0.4395 -0.50001,-1.34 -1.00024,-2.6797 -1.49024,-4.0097 3.67,0.04 7.35172,0.1108 11.01172,-0.1992 -1.63,-2.75 -5.28141,-2.6711 -7.94141,-3.7911 0.15,-1.26 0.31047,-2.5195 0.48047,-3.7695 -7.57,-0.34 -15.24969,0.3398 -22.67969,-1.4102 5.33,-2.65 11.37954,-3.261 16.76954,-5.791 -0.86,-1.29 -1.72032,-2.5796 -2.57032,-3.8496 2.07,-0.25 4.16,-0.4904 6.25,-0.7304 0.07,-0.5 0.22078,-1.5 0.30078,-2 -3.87,-0.84 -7.74984,-1.6086 -11.58984,-2.5586 -0.02,-1.25 -0.041,-2.481 -0.041,-3.711 1.75,0.09 3.51125,0.2298 5.28124,0.2598 4.13,0.29 6.54915,-3.8592 9.11915,-6.4492 -0.6,-1.35 -1.19954,-2.701 -1.76954,-4.041 2.89,-1.36 6.69,-1.6084 8.5,-4.5684 -2.62,0.02 -5.22031,0.1383 -7.82031,0.2383 -0.57,-0.96 -1.11015,-1.8999 -1.66015,-2.8399 -3.44,0.05 -6.84899,-0.4396 -10.20899,-1.0996 -4.04,-0.85 -7.96023,1.0796 -11.99023,0.8496 -4.53,-0.4 -8.77969,-2.3187 -12.42969,-4.9687 3.33,-1.71 6.51851,-3.7011 9.72852,-5.6211 3.01999,-1.91 6.85093,-1.5087 9.96093,-3.1387 3.12,-2.7 5.26922,-6.3001 7.94922,-9.4101 -4.29,0.92 -8.69,0.79 -13,0.08 -5.61,-0.9 -11.29937,1.12 -16.85937,-0.25 -4.72,-1.12 -9.35032,-2.65 -13.82032,-4.5 1.75,-0.9 3.59,-1.6098 5.5,-2.0898 12.01,-3.3 24.27032,-5.7002 36.07032,-9.7402 -0.83,-1.23 -1.66071,-2.4597 -2.47071,-3.6797 1.8,-1.02 3.60039,-2.11 4.90039,-3.75 -12.7,-3.67 -26.14906,-1.9916 -39.03906,-4.6016 2.49,-1.2 4.97859,-2.4698 7.0586,-4.3398 -4.84001,-1.33 -10.06016,-1.9596 -14.16016,-5.0996 1.95,-0.52 3.92023,-1.2395 5.99023,-1.1895 3.27,0.65 6.16039,4.0595 9.65039,2.4395 4.21,-1.68 8.65946,-2.5292 13.18946,-2.6192 1.48,-2.19 2.92101,-4.5311 5.29101,-5.8711 0.93,-0.83 2.56985,-1.2387 2.58985,-2.7187 -8.59,-5.45 -19.26954,-5.3707 -28.26954,-9.7207 -3.11999,-1.32 -2.03984,-4.7799 -1.58984,-7.3399 2.03,1.05 4.00953,2.3196 6.26953,2.8496 2.74,0.38 5.01891,-1.4794 7.12891,-2.9394 3.4,-2.6 7.19117,-4.8006 9.95117,-8.1406 -6.55,-2.43 -13.54094,0.26 -20.21094,-1.42 6.48,-3.33 13.30961,-6.8794 17.09961,-13.4394 -0.51,-0.34 -1.51929,-1.0196 -2.02929,-1.3496 -8.57,-2.23 -17.88032,0.9692 -26.07032,-3.0508 5.94,-11.48 20.77,-12.1693 29,-21.2793 -3.25,-0.16 -6.35875,-1.0816 -9.46875,-1.9316 -2.32,-0.71 -4.47156,0.8302 -6.60156,1.4902 0.36,-2.39 0.82125,-4.8188 0.28125,-7.2188 -2.99,0.18 -5.96117,0.54 -8.95117,0.75 0.24,-1.34 0.65094,-2.8198 2.21094,-3.0898 4.99,-1.7 10.80054,-4.5506 11.81054,-10.3106 -4.08,-1.07 -8.23023,-2.1707 -12.49023,-1.8007 -3.13,0.61 -5.18031,-3.1796 -8.32031,-2.0996 -4.34,0.9 -9.4093,1.4203 -12.5293,-2.4297 4.35,0.73 8.89969,3.5493 13.17969,1.0293 -0.31,-1.39 -0.62969,-2.7687 -0.92969,-4.1387 2.16,0.47 4.36891,1.7185 6.62891,1.2285 1.07,-1.03 1.92054,-2.2494 2.81054,-3.4394 1.69,0.13 3.37985,0.2608 5.08985,0.3808 0.16,-1.57 0.32929,-3.1414 0.52929,-4.6914 1.52,0.04 3.05985,0.1014 4.58985,0.1914 1.46,-1.12 4.82023,-1.891 3.24023,-4.291 -2.08,-0.44 -4.1793,-0.6602 -6.2793,-0.9102 -0.99,-1.26 -1.95968,-2.539 -2.92968,-3.789 -1.77,0.78 -3.52993,1.5686 -5.16993,2.5586 -0.98,0.65 -1.95062,1.3102 -2.89062,1.9902 -2.82,-0.47 -5.65,-0.8886 -8.5,-1.0586 -5.39,3.58 -12.58,4.8602 -18.25,1.1602 0.33,-0.96 0.65977,-1.9309 1.00977,-2.8809 1.38,0.72 2.75062,1.461 4.14062,2.211 2.17,-0.93 4.28039,-1.9913 6.40039,-3.0313 -0.02,-0.97 -0.0312,-1.9306 -0.0312,-2.8906 2.07,0.19 4.16,0.22 6.25,0 2.02,-0.34 4.07039,-0.5893 6.15039,-0.5293 0.38,-0.91 0.76992,-1.809 1.16992,-2.709 -1.99,-1.07 -3.95961,-2.1609 -5.84961,-3.3809 1.57,-2.85 4.7993,-3.8502 7.5293,-5.2402 -0.99,-0.88 -1.97922,-1.7591 -2.94922,-2.6191 1.24,-1.9 2.29008,-3.941 2.58008,-6.211 -4.07,1.24 -7.57078,3.7812 -11.55078,5.2012 -1.75,0.49 -2.8,-1.2609 -4,-2.1309 1.09,-1.4 2.21961,-2.7591 3.34961,-4.1191 -0.96,-0.68 -1.90914,-1.3617 -2.86914,-2.0117 0.37,-5.38 1.81047,-10.6292 4.73047,-15.1992 -4.16,0.94 -8.4311,0.3799 -12.6211,0.9199 1.44,-2.92 3.08,-5.7399 4.5,-8.6699 -2.63,0.02 -4.83867,1.4499 -6.88867,2.9199 -0.12,-4.49 -0.14125,-9.0097 -1.03125,-13.4297 -3.37,2.54 -2.62976,7.1091 -3.25976,10.7891 -2.16,-1.65 -4.34016,-3.3183 -6.91016,-4.2383 1.53,6.84 8.22078,11.7996 7.30078,19.3496 -1.58,-2.19 -2.84,-4.7006 -5,-6.3906 -3.06,-2.22 -6.91031,-2.8295 -10.57031,-3.1895 1.05,1.45 2.18961,2.86 3.34961,4.25 -1.7,1.4 -3.88985,2.5792 -4.33985,4.9492 2.08,0.26 4.18102,0.4895 6.29102,0.6895 -1.1,1.79 -2.28109,3.5407 -3.12109,5.4707 2.16,3.9 8.81117,2.1898 10.70117,6.5898 1.15,1.88 0.0989,3.9398 -0.6211,5.7598 -5.76,-1.17 -6.89007,-7.98 -10.83007,-11.5 -1.67,0.41 -3.33071,0.851 -4.97071,1.291 -1.85,-1.49 -3.70968,-3.1711 -6.17968,-3.3711 0.57,2.03 1.35015,4.0107 2.16015,5.9707 -1.44,0.63 -3.86875,0.1804 -4.21875,2.1504 1.36,2 2.94938,3.8403 4.35938,5.8203 -1.81,0.82 -3.61063,1.6185 -5.39063,2.4785 2.76,3.88 7.71047,4.5615 11.73047,6.5215 -2.7,1.1 -5.46969,2.0186 -8.17969,3.0586 2,1.46 4.55883,2.4207 5.79883,4.7207 -4.6,0.85 -8.49836,3.45 -12.31836,6 -2.4,1.52 -4.78156,3.0802 -7.10156,4.7402 2.93,3.48 7.5014,3.7802 11.6914,3.1602 0.64,1.09 1.29852,2.1893 1.97852,3.2793 0.52,0.17 1.5718,0.5099 2.0918,0.6699 2.52,-2.05 5.57961,-2.7294 8.59961,-1.3594 -0.57,1.43 -1.07102,2.8898 -1.79102,4.2598 -2.12,0.93 -4.2893,-0.6192 -6.2793,-1.1992 -1.62,-0.59 -3.2396,-1.1202 -4.84961,-1.6602 -2.83,1.75 -5.36,4.0696 -8.5,5.2696 -2.58,0.47 -5.12968,-0.5296 -7.67968,-0.7696 -1.57,0.14 -3.13039,0.3898 -4.65039,0.7598 -1.61,0.7 -3.16118,1.4891 -4.70117,2.2891 2.94,1.82 6.05015,3.4397 8.66015,5.7597 3.19,3.82 8.47992,1.1608 12.66992,2.5508 1.75,1.3 3.03063,3.3399 5.14063,4.0899 3.57,-0.17 6.81914,-2.0508 10.36914,-2.5508 -1.92,4.1 -6.17883,6.3208 -10.29883,7.6308 -5.03,1.28 -9.85984,-0.8706 -14.08984,-3.3906 -1.06,1.04 -2.11993,2.0809 -3.16993,3.1309 -1.33,-0.52 -2.61976,-1.16 -4.00976,-1.42 -2.62,0.63 -5.11141,1.7398 -7.69141,2.5098 2.17,2.05 4.08032,4.6506 7.07032,5.5606 5.44,1.3 7.53023,7.2598 11.99023,10.0898 3,0.02 5.76023,-1.4712 8.74023,-1.7012 3.02,-0.23 6.06961,0.1102 9.09961,-0.09 1.4,-0.26 2.78922,-0.5495 4.19922,-0.7695 -1.86,3.27 -5.91828,4.0605 -8.98828,5.8105 -5.96,3.2 -13.07984,2.7688 -19.08984,-0.031 -0.13,1.7 -0.27063,3.401 -0.39063,5.121 -2.99,-0.31 -5.87984,-1.1505 -8.83984,-1.5605 -4.06,0.65 -7.7607,2.6607 -11.7207,3.7207 4.85,4.02 9.04109,8.7688 12.12109,14.2988 8.39,-0.18 16.6893,2.61 25.0293,0.92 -2.8,3.01 -6.24946,5.6814 -10.43946,6.2714 -3.86,0.8 -7.65125,-0.4813 -11.28125,-1.6113 -2.64,-1.35 -4.20867,1.7512 -5.88867,3.2012 -3.27,-0.24 -6.81156,-1.2105 -9.85156,0.5195 -2.09,0.97 -5.33984,2.8709 -3.83984,5.6309 2.54,2.26 5.91078,3.3986 8.30078,5.8886 1.89,2.03 4.92039,1.2411 7.40039,1.5411 -0.63,1.58 -1.24032,3.1693 -1.82032,4.7793 4.44,2.06 9.46016,1.3603 14.16016,2.3203 -0.2,0.34 -0.59101,1.0291 -0.79101,1.3691 -7.82,2.81 -16.34852,1.3503 -24.47852,1.5703 -0.03,0.68 -0.0813,2.031 -0.11133,2.711 1,1.09 2.0307,2.1793 2.9707,3.3593 -0.6,0.94 -1.23984,1.8606 -1.83984,2.8106 2.78,0.06 5.56914,0.1205 8.36914,0.2305 -2.86,2.04 -6.21937,3.9593 -9.85937,3.3593 -4.43,-0.74 -8.66922,-2.4506 -13.19922,-2.6406 0.52,4.52 1.16969,9.8312 5.17968,12.7012 4.63001,3.13 10.47954,2.2984 15.76954,2.6484 -10,6.22 -22.20078,3.7402 -33.30078,4.7402 5.89999,7.27 13.61976,13.5597 23.00976,15.4297 -4.98,1.59 -10.04883,2.8802 -15.04883,4.4102 -5.2,1.57 -10.66953,1.3299 -16.01953,1.4199 1.31,1.52 2.65,3.0308 4,4.5508 -0.89,1.59 -1.74984,3.1905 -2.58984,4.8105 6.26,2.82 12.59992,5.47 18.91992,8.17 6.82,2.9 14.54867,2.8797 21.63867,1.0097 3.77,-0.81 7.80078,-2.6495 11.55078,-0.7695 -4.1,3.56 -9.50953,4.949 -14.51953,6.709 -5.31,1.75 -10.91023,2.7411 -16.49023,1.8711 -2.8,-0.67 -4.90039,1.6398 -7.40039,2.3398 -3.2,0.4 -6.4611,-0.2603 -9.6211,0.4297 -2.79,0.94 -5.02929,2.9398 -7.27929,4.7598 2.33,1.02 4.79953,1.6803 7.26953,2.3203 0.91,0.82 1.56992,2.1904 2.91992,2.4004 4.38,0.86 8.89016,1.0895 13.16016,2.5195 0.35,1.43 0.72156,2.8701 1.10156,4.3301 2.35,-0.2 4.75937,-0.7906 7.10937,-0.3106 1.73,0.79 3.25031,1.9899 4.82031,3.0899 1.83001,-0.81 3.65852,-1.6596 5.47852,-2.5196 1.3,1.24 2.59156,2.5101 3.85156,3.8301 -6.8,4.15 -14.39039,8.6596 -22.65039,8.0996 -4.98,-0.18 -8.79094,-4.1397 -13.71093,-4.5097 0.51999,1.26 1.06156,2.519 1.60156,3.789 -3.4,-0.27 -6.78188,-0.7101 -10.17188,-0.9101 2.22,3.1 6.48063,3.2404 9.64063,4.9804 -1.98,1.39 -4.18969,2.3607 -6.42969,3.2207 0.71,0.25 2.13937,0.7693 2.85938,1.0293 -0.71,1.18 -2.41915,2.1515 -2.11915,3.6915 1.64,0.47 3.32954,0.7689 5.01954,1.1289 0.43,1.6 0.84929,3.2003 1.27929,4.8203 -4.94,-1.07 -9.94953,-2.1493 -15.01953,-1.5293 -11.67,1.09 -23.25961,-1.0314 -34.84961,-1.9414 -3.14,-0.29 -5.85906,1.5606 -8.53906,2.8906 -6.32,3.43 -12.91094,6.3405 -19.21094,9.8105 -0.41,2.83 -0.88945,5.6586 -1.43945,8.4786 -1.88,-0.36 -3.79031,-0.5893 -5.57031,-1.2793 -2.11,-1.18 -3.63039,-3.1493 -5.65039,-4.4493 -2.58,0.24 -4.95985,1.3691 -7.33985,2.2891 -4.99,2.07 -10.16055,3.6912 -15.06054,5.9512 -7.13001,3.31 -14.02922,7.0983 -21.19922,10.3183 -1.77,-2.22 -3.6093,-4.3692 -5.5293,-6.4492 -1.51,2.22 -2.57117,5.2402 -5.45117,5.9902 -4.21,1.54 -8.57883,2.6402 -12.79883,4.1602 -4.24,1.36 -8.60992,3.3799 -13.16992,2.4199 -6.87,-1.28 -13.60071,-3.1904 -20.47071,-4.4804 -3.35,-0.78 -6.46968,1.0108 -9.67968,1.6308 -2.22,-1.41 -3.42032,-4.6503 -6.57032,-4.0703 -0.27,3.08 -0.69992,6.1597 -1.41992,9.1797 -4.7,-1.65 -9.23031,-3.6994 -13.82031,-5.6094 -0.09,0.51 -0.27914,1.5486 -0.36914,2.0586 -1.7,-1.23 -3.50156,-2.4091 -5.60156,-2.7891 -6.21,-1.45 -12.51891,-2.4392 -18.62891,-4.2792 -0.42,-1.78 -0.84023,-3.5601 -1.24023,-5.3301 -2.41,-0.59 -4.87938,-0.9613 -7.35938,-1.0313 -10.57,-0.48 -21.09992,-1.6697 -31.66992,-2.0097 -1.19,3.61 -3.8507,6.3296 -6.7207,8.6796 -1.83,-0.4 -3.66024,-0.7896 -5.49024,-1.1796 -1.85,2.08 -3.62008,4.941 -6.83008,4.541 -1.37,-2.02 -2.77992,-3.9905 -4.16992,-5.9805 -0.73,2.66 -0.87953,6.0295 -4.01953,6.9395 -1.74,-1.16 -3.40062,-2.5405 -5.39062,-3.2305 -2.08,-0.01 -4.11969,0.7702 -6.17969,0.4902 -4.16,-1.21 -7.70008,-3.9099 -11.83008,-5.1699 -2.29,-0.51 -4.63992,0.081 -6.91992,0.3105 2.46,-0.91 5.26062,-1.7293 6.39062,-4.3593 0.81,-2.46 3.49922,-1.4818 5.44922,-1.5918 -0.14,-1.45 -0.27039,-2.8884 -0.40039,-4.3184 3.33,0.31 6.78953,0.9297 10.01953,-0.3203 -2.26,-1.85 -5.18992,-2.2998 -7.91992,-3.0098 0.44,-1.22 0.88031,-2.4306 1.32031,-3.6406 -7.21,-0.48 -14.69992,0.6193 -21.66992,-1.7207 4.99,-2 10.71094,-2.1691 15.21094,-5.2891 -0.59,-1.06 -1.16024,-2.1101 -1.74024,-3.1601 2.38,-0.34 4.74891,-0.8498 6.87891,-2.0098 -3.92,-1.68 -8.19953,-2.0997 -12.26953,-3.2597 0.34,-1.18 0.69125,-2.34 1.03125,-3.5 2.16,0.14 4.31851,0.4402 6.47852,0.2402 2.77999,-0.89 4.57101,-3.3608 6.29101,-5.5508 -0.56,-1.37 -1.11016,-2.7398 -1.66016,-4.0898 2.83,-0.97 5.89883,-1.6802 8.04883,-3.9102 -2.38,0.04 -4.74914,0.2004 -7.11914,0.4004 -0.6,-0.93 -1.21078,-1.8595 -1.80078,-2.7695 -3.5,-0.51 -6.98953,-1.1103 -10.51953,-1.3203 -3.64,-0.24 -7.20961,0.8889 -10.84961,0.7089 -3.95,-0.53 -7.60961,-2.34 -10.84961,-4.58 3.07,-1.66 6.04883,-3.4803 9.04883,-5.2403 2.99,-1.83 6.62148,-1.8895 9.77148,-3.2695 2.59,-2.08 4.14024,-5.1088 5.99024,-7.7988 -4.09,0.02 -8.16047,-0.2804 -12.23047,-0.6504 -4.72,-0.47 -9.48016,0.8994 -14.16016,-0.061 -4.51,-0.92 -8.87023,-2.4507 -12.99023,-4.4707 12.28,-4.94 25.71078,-6.1099 38.05078,-10.9199 -0.53,-1.08 -1.0618,-2.1587 -1.5918,-3.2187 1.34,-1.2 2.66094,-2.4104 3.96094,-3.6504 -11.67,-3.5 -24.10922,-1.7301 -35.94922,-4.3301 2.13,-1.21 4.2893,-2.4102 6.0293,-4.1602 -4.24,-1.23 -8.97922,-1.5405 -12.44922,-4.5605 3.17,-1.73 6.6093,-1.2193 9.5293,0.7207 2.25,1.65 4.82914,0.2002 7.11914,-0.5098 3.24,-1.18 6.72133,-1.3397 10.11132,-1.7597 1.63,-3.29 4.50961,-5.5702 7.59961,-7.4102 -8,-5.01 -17.62929,-5.6798 -26.27929,-9.0098 -3.49,-1.02 -2.82086,-4.8303 -2.13086,-7.5703 1.51,0.86 3.00953,1.7389 4.51953,2.6289 1.88,-0.2 3.76016,-0.4287 5.66016,-0.4687 3.63,-3.33 7.87078,-5.8902 11.55078,-9.1602 -5.7,-3.2 -12.50133,-0.04 -18.61133,-1.6601 1.72,-1.51 3.81008,-2.4507 5.83008,-3.4707 4.24,-2.19 7.4814,-5.809 10.4414,-9.459 -7.64,-3.68 -16.3014,-0.5008 -24.1914,-2.8008 -1.27,-0.13 -2.73907,-1.57 -1.53907,-2.75 6.15,-9.17 18.59961,-10.0402 25.84961,-17.9902 -4.88,-0.94 -10.02054,-3.1894 -14.81054,-0.6094 0.27,-2.19 0.44976,-4.3901 0.50976,-6.5801 -2.61,0.04 -5.20906,0.2609 -7.78906,0.6309 -0.21,-0.45 -0.64938,-1.3506 -0.85938,-1.8106 5.01001,-2.47 12.16985,-4.2812 13.08985,-10.7812 -5.64,-2.27 -12.06086,-0.5094 -17.38086,-3.6094 -4.5,-0.21 -10.17914,2.31 -13.36914,-2.25 4.01,0.85 8.35906,3.121 12.28906,0.791 -0.26,-1.13 -0.50976,-2.2611 -0.75976,-3.3711 1.89,0.36 3.77015,0.7203 5.66015,1.0703 0.92,-1.13 1.84,-2.2491 2.75,-3.3691 1.48,0.1 2.96922,0.2101 4.44922,0.3301 0.29,-1.38 0.58086,-2.7514 0.88086,-4.1114 2.24,-0.34 4.64016,-0.3392 6.66016,-1.4492 1.06,-0.78 1.16984,-1.6697 0.33984,-2.6797 -1.77,-0.47 -3.60039,-0.7102 -5.40039,-0.9902 -1.13,-1.18 -2.24891,-2.3612 -3.37891,-3.5312 -2.45,1.37 -4.73031,3.0714 -7.32031,4.1914 -2.07,-0.03 -4.07062,-0.6904 -6.14062,-0.6504 -3.36,0.54 -6.31969,2.4493 -9.67969,3.0293 -3.05,0.36 -6.02055,-0.7694 -8.81055,-1.8594 0.27,-0.92 0.54031,-1.8302 0.82031,-2.7402 1.39,0.59 2.77993,1.1905 4.16993,1.8105 2.53,-1.08 5.59961,-2.2306 5.84961,-5.3906 3.98,0.26 7.95156,-0.2388 11.85156,-1.0488 0.07,-0.53 0.21906,-1.5814 0.28906,-2.1114 -1.64,-1.26 -4.38008,-1.7805 -4.83008,-4.0605 2.09,-1.63 4.45977,-2.8389 6.75977,-4.1289 -0.89,-0.72 -1.77016,-1.4404 -2.66016,-2.1504 0.96,-1.93 1.71094,-3.9491 2.21094,-6.0391 -3.71,1.29 -6.95039,3.6399 -10.65039,4.9199 -1.86,0.79 -2.71039,-1.2113 -3.65039,-2.3613 0.97,-1.13 1.94992,-2.2489 2.91992,-3.3789 -0.98,-1.07 -3.20906,-1.7308 -2.53906,-3.5508 0.39,-4.37 2.04015,-8.4793 4.16015,-12.2793 -3.96,0.33 -8.00109,-0.07 -11.87109,1.0196 1.6,-2.76 3.07,-5.6004 4.25,-8.5704 -2.08,0.57 -4.10008,1.2909 -6.08008,2.1309 -0.22,-4.03 -0.43039,-8.0612 -1.15039,-12.0312 -2.83,2.57 -2.47976,6.6105 -3.00976,10.0605 -1.98,-1.38 -3.96883,-2.7505 -6.04883,-3.9805 -0.76,2.8 1.75945,4.9715 2.93945,7.2715 2.28,3.17 3.55953,6.9392 3.51953,10.8692 -1.51,-1.97 -2.80015,-4.1291 -4.66015,-5.7891 -2.85001,-2.14 -6.50993,-2.62 -9.91993,-3.25 0.95,1.38 1.94118,2.7398 2.95117,4.0898 -1.56999,1.33 -3.04117,2.8193 -3.95117,4.6993 1.98,0.19 3.96117,0.3504 5.95117,0.4804 -1.03999,1.87 -2.03046,3.7695 -2.98046,5.6895 2.8,1.87 6.14031,2.6204 9.07031,4.2304 2.05,1.88 1.40898,4.99 0.20898,7.17 -5,-1.95 -6.36929,-7.6711 -10.02929,-11.1211 -1.5,0.41 -3,0.8209 -4.5,1.2109 -1.71,-1.34 -3.50946,-2.54 -5.43946,-3.5 0.37,1.96 0.91961,3.8893 1.59961,5.7793 -1.31,0.65 -2.61992,1.32 -3.91992,2 1.38,1.91 2.75961,3.8313 4.09961,5.7813 -1.59,0.64 -3.17953,1.2792 -4.76953,1.9492 1.96,4.04 7.02953,4.2508 10.51953,6.3808 -2.45,0.97 -4.93922,1.7999 -7.44922,2.5899 1.5,1.58 4.94852,2.3396 4.72852,4.8496 -6.48,1.87 -11.88008,6.0401 -17.33008,9.8301 2.7,3.31 7.02086,3.0802 10.88086,3.2402 0.95,1.01 1.52015,2.6504 2.91015,3.1504 2.88,-0.79 5.73883,-2.0009 8.79883,-1.4609 -0.55,1.72 -1.20851,3.4107 -1.97851,5.0507 -3.36,-1.02 -6.70149,-2.1014 -10.02149,-3.1914 -2.28,1.39 -4.43906,2.9603 -6.78906,4.2403 -2,1.22 -4.37906,0.2301 -6.53906,0.1601 -3.73,-0.69 -7.30047,0.9304 -10.73047,2.1504 3.59,2.5 7.5593,4.5301 10.5293,7.8301 2.86,-0.05 5.7996,-0.3796 8.59961,0.4004 2.18999,0.86 3.82023,2.7089 5.99023,3.6289 3.39,-0.38 6.57016,-1.7597 9.91016,-2.4297 -2.75,4.47 -7.74,7.3509 -13,7.4609 -3.67,0.37 -6.89899,-1.6398 -9.95899,-3.3398 -1.07,0.93 -2.12164,1.8686 -3.18164,2.8086 -3.54,-2.12 -7.28883,-0.2289 -10.79883,0.8711 1.78,2.22 3.72024,4.4787 6.49024,5.4687 4.76,1.66 7.57945,6.1006 10.93945,9.5606 6.81,-2.18 13.91992,-1.6305 20.91992,-2.4805 -1.06,1.39 -2.39023,2.5513 -3.99023,3.2813 -3.94,1.93 -8.00899,3.9888 -12.45899,4.2988 -3.47,0.28 -6.71156,-1.2085 -9.85156,-2.4785 -0.12,1.62 -0.23937,3.2291 -0.35937,4.8691 -2.95,-0.27 -5.81,-1.1001 -8.75,-1.3301 -3.49,0.7 -6.71055,2.2795 -10.06055,3.4395 4.23,4.09 8.20094,8.4315 11.21094,13.5215 7.5,-0.24 14.86914,1.5386 22.36914,1.3086 -2.57,2.82 -5.94907,4.9304 -9.78907,5.4004 -4.03,0.78 -7.72031,-1.3892 -11.57031,-2.1192 -1.4,0.84 -2.43055,2.1393 -3.56054,3.2793 -2.87,-0.13 -5.73938,-0.2294 -8.60938,-0.1094 0.6,-0.83 1.20055,-1.6509 1.81055,-2.4609 -4.94,1.13 -10.03977,1.0109 -15.00977,0.2109 -7.25,-1.25 -14.611012,1.5496 -21.791012,-0.4004 -4.58,-1.25 -9.53047,-2.8307 -12.48047,-6.8007 15.32,-5.27 31.660782,-7.089 46.800782,-12.959 -1.14,-1.46 -2.28969,-2.8996 -3.42969,-4.3496 1.96,-1.09 3.99969,-2.0417 5.92969,-3.1817 -0.04,-0.34 -0.10086,-1.0291 -0.13086,-1.3691 -15.19,-4.57 -31.488992,-1.5107 -46.708992,-5.7207 3.02,-1.27 6.06993,-2.5499 8.66993,-4.5899 -5.5,-1.8 -11.67938,-2.1996 -16.35938,-5.9296 1.81,-0.96 3.58852,-2.31 5.72852,-2.25 3.58,-0.29 5.83015,3.3108 9.16015,3.8808 3.94,0.03 7.20055,-2.7499 11.06055,-3.1699 2.81,-0.26 5.640942,-0.2409 8.460942,-0.4609 0.97,-1.8 1.77984,-3.7306 3.08984,-5.3106 2.11,-1.64 4.57883,-2.7483 6.54883,-4.5683 -10.3,-7.11 -23.439382,-7.0312 -34.609382,-11.9512 -3.89,-1.68 -2.5707,-6.23 -2.2207,-9.5 2.54,1.33 4.89094,3.1901 7.71094,3.9101 3.61,0.37 6.59961,-2.1296 9.34961,-4.0996 3.88,-3.06 8.280002,-5.5393 11.500002,-9.3593 -7.920002,-3.28 -16.710002,1.5086 -24.500002,-2.1114 8.18,-3.39 16.16929,-8.2703 20.779302,-16.0703 -10.520012,-5.49 -23.298992,0.8909 -33.708992,-5.0391 2.45,-5.62 7.62016,-9.3192 12.91016,-12.0292 7.48,-3.95 15.70906,-7.0417 21.539062,-13.4317 -3.610002,-0.08 -7.080242,-1.0487 -10.490232,-2.1387 -3.04,-1.25 -5.88922,0.8798 -8.69922,1.7598 0.41,-2.86 0.95945,-5.7213 0.68945,-8.6113 -3.53,-0.53 -6.99016,0.3608 -10.41016,1.1308 -0.05,-1.13 -0.08914,-2.2493 -0.11914,-3.3593 6.5,-2.14 14.07008,-5.1508 16.33008,-12.3008 -0.68,-1.47 -2.63969,-1.2588 -3.92969,-1.7988 -3.75,-1.05 -7.63125,-1.6015 -11.53125,-1.2715 -2.81,0.51 -4.87976,-1.6599 -7.00976,-3.0899 -5.75,1.29 -13.49039,3.3304 -17.40039,-2.5996 5.21,1.37 11.21164,4.8995 16.18164,0.9395 -0.64,-1.51 -1.2711,-3.0098 -1.8711,-4.5098 2.55,0.68 5.04071,1.9106 7.72071,1.8906 1.98,-0.93 2.71914,-3.2197 3.86914,-4.9297 1.85,0.49 3.70031,0.96 5.57031,1.42 0.77,-1.79 0.67031,-3.7311 0.57031,-5.6211 3.55,-0.48 7.21922,-0.7485 10.44922,-2.4785 -0.03,-0.73 -0.08937,-2.1802 -0.10937,-2.9102 -2.81,-0.41 -5.61039,-0.8513 -8.40039,-1.3613 -0.9,-1.53 -1.80071,-3.0489 -2.72071,-4.5489 -3.65,1.32 -6.60828,3.8797 -9.98828,5.6797 -2.97,0.09 -5.80125,-1.5395 -8.78125,-1.0195 -4.23,0.77 -7.84961,3.4186 -12.09961,4.0586 -3.69,0.14 -7.22023,-1.2192 -10.74023,-2.1192 0.01,-1.29 0.02078,-2.5698 0.05078,-3.8398 2.11,0.3 4.0089,1.27 5.87891,2.25 2.67,-1.21 5.22124,-2.6701 7.78124,-4.0801 -0.18999,-0.98 -0.37054,-1.9499 -0.56054,-2.9199 5.18,0.57 10.26914,-0.6803 15.36914,-1.3203 0.39,-0.51 1.16101,-1.5308 1.54101,-2.0508 -2.44,-1.72 -5.05,-3.1789 -7.5,-4.8789 2.13,-3.31 6.08024,-4.47 9.24024,-6.5 -1.34,-0.89 -2.70078,-1.7513 -4.05078,-2.6113 1.73,-2.32 3.66039,-4.7596 3.40039,-7.8496 -4.81,1.67 -8.99071,4.7007 -13.7207,6.5507 -2.26,0.78 -3.75946,-1.58 -4.68946,-3.25 1.49,-1.6 2.92977,-3.2407 4.25977,-4.9707 -1.5,-0.51 -3.00953,-1.0004 -4.51953,-1.4804 1.82,-5.76 1.72039,-12.2794 5.90039,-17.1094 l 0.03906,-1.4004 c -4.9,2.08 -10.66,-1.3397 -15,2.3203 1.13,-4.2 3.9607,-7.5991 5.4707,-11.6191 -3.04,-0.18 -5.52094,1.6201 -7.96093,3.1601 -0.33001,-5.2 -0.53883,-10.42 -1.29883,-15.58 -4.54,2.5 -3.03149,8.4887 -4.02149,12.7187 -2.8,-1.73 -5.04969,-4.8784 -8.679685,-4.6484 1.809995,4.96 5.370785,8.9783 7.550785,13.7383 1.46,3.03 1.56046,6.4402 1.48046,9.7402 -1.74999,-2.92 -2.99992,-6.3792 -5.91992,-8.3692 -3.709997,-2.6 -8.2907,-3.5396 -12.7207,-3.9296 0.99,2.06 2.720391,3.5688 4.400391,5.0488 -1.88,1.46 -3.87961,2.7909 -5.59961,4.4609 0.73,2.99 5.229375,1.9007 7.609375,2.6407 -1.48,2.22 -2.860078,4.5086 -4.080078,6.8886 3.09,2.59 7.169766,3.0401 10.759762,4.5801 3.49,2.06 3.98102,6.9995 1.29102,9.9395 -6.040001,-1.81 -7.650469,-8.6001 -11.480469,-12.8301 -2.01,-2.38 -4.959532,0.01 -7.269532,0.5605 -2.1299995,-1.86 -4.1314835,-4.3997 -7.2714835,-4.1797 0.67,2.63 1.830547,5.0803 3.060547,7.4903 -2.03,0.3 -4.050078,0.609 -6.080078,0.959 1.6,2.95 3.971093,5.371 5.621094,8.291 -2.12,0.95 -4.221641,1.9492 -6.18164102,3.1992 3.46000002,4.47 9.25015552,5.3211 14.16015552,7.3711 -3.19,1.69 -6.6998435,2.5795 -10.0898435,3.7695 2.28,2 5.9207815,2.7699 7.0507815,5.8399 -8.8899995,1.82 -15.6613275,8.2801 -23.361329,12.6601 3.2500015,4.33 8.9217975,5.1299 13.8417975,3.5899 0.89,1.61 1.74961,3.2311 2.59961,4.8711 2.82,0.29 5.1301555,-1.4809 7.6601555,-2.3809 1.85,-0.17 3.670234,0.4505 5.490234,0.7305 -0.86,2.01 -1.77,3.9989 -2.75,5.9589 -4.55,-0.51 -8.7109365,-2.479 -12.9609365,-4.039 -3.28000002,1.88 -6.079297,4.5601 -9.529297,6.1601 -4.0300005,1.75 -8.1614845,-1.6407 -12.2714845,-0.4707 -3.19,0.74 -6.208985,2.0306 -9.208985,3.3106 4.73,3.15 10.409297,5.1988 13.529297,10.2988 4.27,-1.62 8.8396095,-0.8096 13.0996095,0.4004 2.12999998,1.47 3.440938,4.7511 6.460938,4.3711 4.11,-0.72 7.8102335,-2.9416 11.9902335,-3.4316 -3.86,6.82 -12.0699995,10.5212 -19.7499995,9.7812 -3.87,-0.38 -7.0392965,-2.8012 -10.2792965,-4.7012 -1.13,1.43 -2.21125,2.9009 -3.28125,4.3809 -1.91,-0.66 -3.76961,-1.4608 -5.59961,-2.3008 -2.72,1.85 -5.859141,2.7999 -9.11914,3.0899 3.69,3.53 7.089765,8.14 12.759765,8.08 2.02,3.91 6.009531,6.0601 8.519531,9.5801 1.8400005,2.78 5.4804695,0.9015 7.9804695,0.2715 6.51,-2.29 13.5801555,0.3194 20.1601555,-2.0606 -0.32,2.27 -2.530781,3.1802 -4.300781,4.1602 -5.9699995,3.06 -12.3092185,6.1591 -19.1992185,5.8691 -3.63,-0.4 -7.0317965,-1.81 -10.3417975,-3.25 0.110001,1.92 0.440235,3.8906 -0.0098,5.8106 -3.93,2.29 -8.000156,-2.7205 -12.160156,-1.2305 -4.37,1.47 -8.52875,3.6796 -13.21875,4.0996 5.58,4.75 11.439843,9.7603 14.089843,16.8203 5.34,2.06 11.190157,0.4009 16.660157,1.8809 4.7300005,1.23 9.61937548,0.8899 14.3593755,-0.08 -4.45000002,5.64 -11.940079,8.8407 -19.0800785,7.6407 -3.35,-0.75 -6.508907,-2.1601 -9.878907,-2.8301 -1.26,1.6 -2.521015,3.2101 -3.791015,4.8301 -2.73,-0.33 -5.419688,-1.0413 -8.179688,-1.0313 -2.63,0.53 -5.070937,1.8297 -7.210937,3.4297 -1.06,0.91 -2.568438,2.0111 -1.898438,3.6211 1.05,2.97 4.429141,3.7587 6.869141,5.2187 2.15,1.03 3.270781,3.3613 5.300781,4.5313 2.5,0.46 5.059844,0.3301 7.589844,0.4101 -1.01,1.67 -2.01,3.3491 -3,5.0391 5.09,4.65 12.66914,1.0211 18.11914,4.6211 -7.06,2.52 -14.638828,2.7784 -22.048828,2.3984 -3.06,-0.08 -6.131406,0.031 -9.191406,0.211 -0.43,2.81 1.081172,4.9007 3.451172,6.2207 -0.46,1.44 -0.930859,2.8896 -1.380859,4.3496 2.769999,0.14 5.540781,0.2993 8.300781,0.5293 -1.92,1.5 -3.939922,3.0712 -6.419922,3.4512 -6.87,1.38 -13.090156,-3.0911 -19.910156,-2.8711 -0.04,5.31 1.15,11.2907 5.5,14.8007 5.72,4.1 13.078984,3.2504 19.708984,3.5704 -12.06,7.63 -26.779375,3.7897 -40.109375,5.5097 v 0.9102 c 5.04,5.16 10.209141,10.4191 16.619141,13.8691 3.21,1.8 6.790468,2.721 10.230468,3.961 -8.84,2.63 -17.609609,5.869 -26.849609,6.789 v 15.3399 c 4.88,1.88 9.709063,3.8899 14.539062,5.9199 9.23,4 19.810001,3.1603 29.25,0.3203 3.460001,-1 7.44086,-2.3491 10.63086,0.1309 -3.04,2.82 -7.050078,4.1091 -10.830078,5.6191 -5.59,2.18 -11.390313,3.8608 -17.320313,4.8008 -4.32,0.76 -8.67,-0.2904 -13,-0.4004 -3.339999,4.01 -8.659531,3.1491 -13.269531,2.8691 v 11.9102 c 5.06,1.19 10.330547,1.4502 15.310547,2.9902 2.22,1.16 1.109766,4.0801 1.259765,6.0801 2.640001,-0.7 5.300313,-1.75 8.070313,-1.5 2.66,0.49 4.480234,2.7391 6.740234,4.0391 2.74,-0.74 5.06836,-2.5694 7.81836,-3.3594 0.76,1.89 1.770937,3.6999 3.460937,4.9199 -2.05,1.62 -4.25039,3.0494 -6.65039,4.1094 -5.98,2.73 -12.110625,6.0709 -18.890625,5.7109 -6.29,-0.1 -11.629141,-3.7303 -17.119141,-6.3203 v 7.1309 c 7.01,2.4 13.940625,5.3395 21.390625,6.0195 6.79,0.97 13.678906,0.4498 20.378906,-0.9102 2.18,-0.52 5.661172,-0.3504 5.951172,2.5196 2.93,16.81 -0.110859,33.9698 2.119141,50.8398 0.72,8.5 -0.499141,17.0706 0.630859,25.5606 1.37,9.46 -0.310937,19.0693 1.289063,28.5293 0.89,23.2 2.740937,46.6114 9.210937,69.0214 2.9900005,8.26 7.6290635,15.8994 13.28906348,22.6094 8.34000002,8.37 18.88960852,14.3195 30.09961352,17.9395 13.79999,5.14 28.36085,7.8011 42.88085,9.9511 10.67,0.57 21.23891,2.1491 31.878917,3.0391 27.85,2.3 55.73086,4.3301 83.63086,5.6601 6.18,0.99 12.46992,0.2795 18.66992,1.1895 5.74,0.87 11.58008,0.03 17.33008,0.8105 6.13,0.9 12.37,0.3693 18.5,1.2793 7.8,1.02 15.69,-0.3095 23.5,0.7305 5.85,0.85 11.79992,0.3797 17.66992,1.1797 5.03,0.65 10.13016,0.2404 15.16016,0.9004 5.86,0.79 11.80992,0.2994 17.66992,1.1894 35.8,1.83 71.54984,4.6806 107.33984,6.8106 4.68,0.56 9.46102,0.2703 14.04102,1.5703 H 1469.8779 c 5.21,-1.65 10.7205,-0.7303 16.0605,-1.5703 52.05,-3.56 104.1099,-6.5399 156.1699,-9.9199 6.9,-1.09 13.9101,-0.039 20.8301,-1.0489 26.94,-2.25 53.9809,-4.6106 80.3809,-10.6406 8.82,-1.76 17.6088,-4.1407 25.5488,-8.4707 6.11,-3.35 12.8599,-6.0604 17.5899,-11.4004 3.63,-4.03 7.9608,-7.5396 10.6308,-12.3496 7.42,-12.8 11.0988,-27.4297 12.9688,-42.0097 1.49,-19.17 3.2213,-38.3406 3.6113,-57.5606 1.81,-11.03 -0.151,-22.2391 1.459,-33.2891 1.13,-12.31 -0.5593,-24.7295 0.9707,-37.0195 0.82,-27.89 0.109,-55.8109 0.459,-83.7109 0.37,-3.15 0.3514,-8.0902 4.5214,-8.4102 8.62,-1.17 17.3695,-2.3093 25.4395,-5.7793 v -8.0195 c -4.74,0.31 -9.2998,1.7196 -14.0098,2.0996 -6.55,-0.02 -12.821,-2.7901 -18.041,-6.5801 4.33,-1.97 8.3909,-4.451 12.3809,-7.041 3.87,-2.68 8.8608,-2.0283 13.0508,-3.8183 2.68,-1.78 4.6191,-4.4419 6.6191,-6.9219 v -4.5 c -8.01,-0.34 -15.98,-1.97 -24,-1 -10.09,1.13 -20.0292,-2.2389 -28.9492,-6.6289 17.37,-5.82 35.6792,-8.2897 52.9492,-14.4297 v -11.0801 c -15.11,-3.7 -31.0503,-1.0301 -46.0703,-5.0801 2.91,-1.57 6.0112,-2.8303 8.7012,-4.8203 -6.24,-2.32 -13.1504,-3.1295 -18.5704,-7.2695 2.91,-0.69 5.8294,-1.5404 8.8594,-1.6504 2.98,0.65 5.1004,3.3797 8.1504,3.9297 4.21,0.21 7.7899,-2.6506 11.9199,-3.0606 3,-0.4 6.1399,0.1207 9.0899,-0.7793 1.54,-1.6 2.1708,-3.8598 3.5508,-5.5898 2.19,-1.74 4.72,-2.9891 7,-4.6191 -10.53,-8.18 -24.7614,-7.7817 -36.6114,-12.9317 -4.33,-1.57 -3.2501,-6.6592 -2.9101,-10.1992 2.71,1.24 5.2001,3.0297 8.0801,3.9297 3.9,0.37 7.27,-2.1299 10.25,-4.3399 4,-3.22 8.5305,-5.7898 12.0605,-9.5898 -7.72,-5.11 -17.7605,1.8201 -25.4805,-3.1699 9,-2.96 16.3606,-9.2595 22.0606,-16.6895 -5.51,-3.25 -12.0795,-2.7112 -18.1895,-3.4512 -6.14,1.45 -12.9399,0.8802 -18.4199,-2.3398 5.47,-10.22 16.9795,-14.1902 26.7695,-18.9902 2.79,-2.11 5.5706,-4.2594 8.5606,-6.1094 0.34,-0.49 1.0098,-1.4805 1.3398,-1.9805 -4.57,-0.16 -8.7504,-2.1087 -13.1504,-2.9687 -2.48,0.22 -4.5708,1.8684 -6.8808,2.6484 0.1,-2.94 0.6008,-5.8287 1.0508,-8.7187 -3.66,-1.91 -7.6411,-0.3396 -11.2911,0.6504 -0.16,-1.22 -1.2495,-2.8211 -0.02,-3.7911 3.3,-1.87 7.2911,-2.3397 10.3711,-4.6797 3.16,-2.42 6.4496,-5.5109 6.8496,-9.7109 -3.52,-0.56 -6.9594,-1.4201 -10.4394,-2.0801 -2.98,-0.63 -5.9914,0.441 -8.9414,-0.039 -1.75,-0.87 -2.9899,-2.6395 -4.8399,-3.1895 -4.39,0.41 -8.7894,2.4294 -13.1894,1.1094 -2.45,-0.56 -4.2411,-2.3909 -5.7911,-4.2109 5.59,1.53 12.2608,5.581 17.5508,1.121 -0.81,-1.7 -1.5996,-3.401 -2.3496,-5.121 2.6,0.86 5.1404,2.0005 7.9004,2.3105 2.74,-0.11 3.6096,-3.2796 5.0996,-5.0996 2.18,0.53 4.4192,0.8699 6.6992,0.9199 -0.2,-2 -0.3103,-4.0207 0.1797,-5.9707 4.01,-0.26 10.9613,0.381 11.2813,-5.209 -3.18,-0.74 -6.4211,-1.1103 -9.6211,-1.5703 -1.15,-1.46 -1.5299,-4.3305 -3.6699,-4.4805 -3.87,1.01 -6.6703,4.1398 -10.2403,5.7598 -2.87,-0.04 -5.5297,-1.7884 -8.4297,-1.3984 -5.01,0.72 -9.2195,4.1283 -14.2695,4.5683 -3.78,-0.05 -7.3898,-1.3485 -11.0098,-2.2285 -0.05,-1.66 0.2092,-3.2905 0.8692,-4.8105 1.7,1.01 3.3507,2.1599 5.2207,2.9199 3.09,-0.79 5.6493,-2.8499 8.5293,-4.1699 -0.15,-1.14 -0.2787,-2.2804 -0.3887,-3.4004 5.53,1.27 10.9785,-0.8291 16.4785,-1.2891 0.4,-0.55 1.2113,-1.6414 1.6113,-2.1914 -2.12,-1.74 -4.6699,-2.7795 -6.9199,-4.2695 -1.07,-1.01 -0.4707,-2.7488 0.7793,-3.2988 2.46,-1.82 5.31,-2.9912 8,-4.4512 -1.44,-1.06 -2.8998,-2.0799 -4.3398,-3.0899 1.79,-2.51 4.4201,-5.0597 3.4101,-8.4297 -4.82,2 -9.2104,4.8905 -13.9804,6.9805 -2.19,1.18 -4.9603,-0.9604 -5.2403,-3.1504 0.93,-2.14 3.0902,-3.5497 4.1602,-5.6797 -1.59,-0.52 -3.149,-1.01 -4.709,-1.5 1.02,-2.49 1.3488,-5.1705 1.7188,-7.8105 0.59,-4.33 2.9003,-8.1307 4.8203,-11.9707 -3.7,1.09 -7.5296,0.8103 -11.2696,0.3203 -2.01,-0.45 -3.4402,1.3012 -4.9902,2.2012 1.1,-4.36 3.6606,-8.0802 5.8906,-11.9102 -3.35,-1.87 -6.0408,1.3396 -8.5508,3.0996 -0.54,-5.77 -0.8096,-11.5601 -1.3496,-17.3301 z m -150.9297,194.8301 c 3.19,1.72 6.6397,2.719 10.1797,3.459 -3.59,-0.06 -7.9197,-0.229 -10.1797,-3.459 z m 23.1094,75.8106 c 1.22,0.73 2.4498,1.4886 3.7598,2.1386 2.9,1.84 6.9297,-1.4594 9.4297,1.5606 6.47,6.68 14.6104,11.9698 23.9004,13.5898 -1.82,0.94 -3.8194,1.5696 -5.8594,1.5996 -5.86,-5.46 -14.1301,-6.5693 -21.5801,-8.5293 -3.64,-1.05 -8.0201,-1.5305 -10.4101,-4.8105 -0.46,-1.89 0.3197,-3.7488 0.7597,-5.5488 z m -4.3008,26.4883 c 2.6129,0.1462 5.1111,2.0253 6.3711,4.3203 -3.12,-0.82 -6.9204,-1.0599 -8.9804,-3.8399 0.855,-0.385 1.7384,-0.5292 2.6093,-0.4804 z m -1509.48627,12.7968 c 0.53411,0.045 1.0886,0.263 1.66797,0.7149 2.7,1.12 4.93992,3.0096 6.66992,5.3496 1.94,0.11 3.8686,0.1986 5.8086,0.3086 -0.62,1.26 -1.23961,2.5208 -1.84961,3.8008 3.23,2.12 7.13,1.4806 10.75,2.1406 0.73,0.13 2.19015,0.3895 2.91015,0.5195 -0.86,1.38 -2.44968,1.841 -3.92968,2.211 -7.35,1.65 -15.31,-1.1613 -22.25,2.2187 -5.17,0.55 -10.39961,2.3495 -15.59961,1.0195 -4.430002,-1.13 -8.980472,-2.7989 -12.230472,-6.1289 7.85,-1.27 13.210702,-10.3912 21.720702,-8.2812 2.07188,-1.0481 4.01755,-4.0693 6.33203,-3.8731 z m 1574.76557,7.1153 c 1.8441,-0.069 3.6568,0.6682 5.2618,1.6582 -1.87,1.98 -4.4711,2.94 -6.8711,4.08 -8.36,3.75 -17.2099,6.5601 -26.3399,7.5801 -3.65,0.4 -7.1983,-1.1288 -10.8183,-0.7988 -1.85,0.74 -3.0815,2.429 -4.5215,3.709 -4.48,-0.23 -8.9697,-1.2502 -13.4297,-0.4102 -3.17,0.67 -6.5103,-0.1991 -9.0703,-2.1191 10.56,-3.8 21.7011,-5.611 32.4511,-8.791 2.26,-0.7 4.6096,-1.3093 7.0196,-1.0293 8.32,0.74 16.5207,-1.3196 24.4707,-3.5196 0.615,-0.2225 1.233,-0.3364 1.8476,-0.3593 z m -38.8886,30.5586 c 1.51,0.24 2.7004,1.2698 3.9804,2.0898 -0.28,1.82 -0.5305,3.6602 -0.8105,5.4902 3.1,-1.02 6.3709,-2.31 9.7109,-1.58 2.79,0.52 4.3696,3.6196 7.0996,4.0996 2.7,-0.88 4.7898,-3.2195 7.7598,-3.4395 0.5,1.28 1.0298,2.5806 1.5898,3.8906 0.64,0.22 1.9206,0.6687 2.5606,0.8887 -1.7,2.03 -4.0995,3.1412 -6.6895,3.4512 -0.45,-1.21 -0.8918,-2.3903 -1.3418,-3.5703 -5.51,1.18 -10.7885,-2.3507 -16.2285,-0.7207 -6.46,1.74 -13.5201,-0.1094 -18.5801,-4.3594 3.9,-1.63 7.1893,-4.3702 10.9493,-6.2402 z m -1519.19923,41.1738 c 1.17829,-0.032 2.34062,0.1789 3.46875,0.8164 -1.65,2.28 -4.51946,3.0695 -6.93946,4.2695 -4.77,2.38 -10.27078,1.1508 -15.30078,2.5508 0.28,-0.44 0.84133,-1.3412 1.11133,-1.7812 1.8,-0.14 3.59867,-0.3 5.38867,-0.5 1.14,-1.6 2.35024,-3.3584 4.49024,-3.5684 2.52312,-0.4675 5.189,-1.7161 7.78125,-1.7871 z m -93.093752,26.6777 c 0.32498,-0.017 0.67523,0.013 1.05273,0.098 2.35,1.67 3.77086,4.2702 5.13086,6.7402 -3,-0.5 -5.95086,-1.2098 -8.88086,-2.0098 -0.55125,-2.2575 0.4224,-4.7067 2.69727,-4.8281 z m 84.263672,0.9492 c 1.19,0.96 2.25922,2.0593 3.19922,3.2793 -4.49,3.16 -9.7893,5.2301 -15.0293,6.8301 -0.42,-0.94 -0.85125,-1.869 -1.28125,-2.789 2.09,-0.14 4.18148,-0.2501 6.27148,-0.3301 -0.3,-1.57 -0.6114,-3.1202 -0.9414,-4.6602 2.62,-0.71 5.22125,-1.4601 7.78125,-2.3301 z m 1566.85931,1.5704 c 3.69,0 4.7411,4.0181 6.3711,6.5781 2.28,-0.29 4.5689,-0.6185 6.8789,-0.8985 -1.78,1.78 -3.78,3.5603 -6.25,4.2403 -2.88,0.02 -5.8289,-1.1717 -8.6289,-0.1817 -3.66,1.71 -6.3815,5.1907 -10.3515,6.2207 -2.73,0 -5.7485,-0.1995 -7.8985,-2.0195 1.62,0.05 3.27,0.1789 4.92,0.3789 1.12,-1.66 1.7999,-3.5494 2.4199,-5.4394 2.57,0.28 5.1595,0.5105 7.7695,0.5605 -1.61,-1.89 -3.7112,-3.2506 -5.5312,-4.8906 2.97,-2.28 6.4607,-4.3988 10.3007,-4.5488 z m -1672.910094,5.7089 c 0.4,1.85 1.851249,4.4498 0.28125,6.0098 -2.71,0.81 -5.661172,0.1609 -8.451172,0.2109 2.11,-2.79 5.209922,-4.5007 8.169922,-6.2207 z m 165.830084,27.92 c 1.89,2.17 3.66976,4.4303 5.50976,6.6503 3.51,-1.15 6.12,1.4108 7.75,4.2208 -4.51,0.97 -9.14906,2.4396 -13.78906,1.8496 -2.98,-1.75 -2.19977,-5.9201 -2.25977,-8.8301 -0.25,-1.93 1.32907,-3.0606 2.78907,-3.8906 z"
     style="fill:#30422b;stroke:#30422b;fill-opacity:1;stroke-opacity:1;stroke-width:1.1;stroke-miterlimit:4;stroke-dasharray:none" /><path
     style="fill:#30422b;stroke:#30422b;fill-opacity:1;stroke-opacity:1;stroke-width:1.1;stroke-miterlimit:4;stroke-dasharray:none"
     inkscape:connector-curvature="0"
     id="path246"
     d="m 1821.0785,1457.1185 c 8.62,-1.17 17.37,-2.31 25.44,-5.78 v 36.03 c -4.7,1.61 -9.82,2.17 -14.09,4.84 4.57,1.29 9.35,1.39 14.09,1.49 v 280.82 h -376.64 c 5.21,-1.65 10.72,-0.73 16.06,-1.57 52.05,-3.56 104.11,-6.54 156.17,-9.92 6.9,-1.09 13.91,-0.04 20.83,-1.05 26.94,-2.25 53.98,-4.61 80.38,-10.64 8.82,-1.76 17.61,-4.14 25.55,-8.47 6.11,-3.35 12.86,-6.06 17.59,-11.4 3.63,-4.03 7.96,-7.54 10.63,-12.35 7.42,-12.8 11.1,-27.43 12.97,-42.01 1.49,-19.17 3.22,-38.34 3.61,-57.56 1.81,-11.03 -0.15,-22.24 1.46,-33.29 1.13,-12.31 -0.56,-24.73 0.97,-37.02 0.82,-27.89 0.11,-55.81 0.46,-83.71 0.37,-3.15 0.35,-8.09 4.52,-8.41 z" /><path
     style="fill:#30422b;stroke:#30422b;fill-opacity:1;stroke-opacity:1;stroke-width:1.1;stroke-miterlimit:4;stroke-dasharray:none"
     inkscape:connector-curvature="0"
     id="path260"
     d="m -73.481482,1518.0785 c 7.01,2.4 13.94,5.34 21.39,6.02 6.79,0.97 13.68,0.45 20.38,-0.91 2.18,-0.52 5.66,-0.35 5.95,2.52 2.93,16.81 -0.11,33.97 2.12,50.84 0.72,8.5 -0.5,17.07 0.63,25.56 1.37,9.46 -0.31,19.07 1.29,28.53 0.89,23.2 2.74,46.61 9.21,69.02 2.9900005,8.26 7.6300005,15.9 13.29000048,22.61 8.34000002,8.37 18.88999952,14.32 30.09999952,17.94 13.8,5.14 28.36,7.8 42.88,9.95 10.67,0.57 21.24,2.15 31.880002,3.04 27.85,2.3 55.73,4.33 83.63,5.66 6.18,0.99 12.47,0.28 18.67,1.19 5.74,0.87 11.58,0.03 17.33,0.81 6.13,0.9 12.37,0.37 18.5,1.28 7.8,1.02 15.69,-0.31 23.5,0.73 5.85,0.85 11.8,0.38 17.67,1.18 5.03,0.65 10.13,0.24 15.16,0.9 5.86,0.79 11.81,0.3 17.67,1.19 35.8,1.83 71.55,4.68 107.34,6.81 4.68,0.56 9.46,0.27 14.04,1.57 H -73.481482 v -223.93 c 4.89,-1.27 10.15,-1.41 14.66,-3.9 -3.72,-5.32 -11.43,-5.52 -14.66,-11.33 z" /></g>
	
	
	
	
	
	
	
	<g
   id="g1168"
   style="fill:#305f40;fill-opacity:1;stroke:#305f40;stroke-opacity:1;stroke-width:1.2;stroke-miterlimit:4;stroke-dasharray:none"><path
     fill="#131C2C"
     stroke="#131C2C"
     id="path136"
     d="M1898.8,576.08c7.54-3.54,14.79-7.83,21.2-13.18v126c-15.11-3.7-31.05-1.03-46.07-5.08   c2.91-1.57,6.01-2.83,8.7-4.82c-6.24-2.32-13.15-3.13-18.57-7.27c2.91-0.69,5.83-1.54,8.86-1.65c2.98,0.65,5.1,3.38,8.15,3.93   c4.21,0.21,7.79-2.65,11.92-3.06c3-0.4,6.14,0.12,9.09-0.78c1.54-1.6,2.17-3.86,3.55-5.59c2.19-1.74,4.72-2.99,7-4.62   c-10.53-8.18-24.76-7.78-36.61-12.93c-4.33-1.57-3.25-6.66-2.91-10.2c2.71,1.24,5.2,3.03,8.08,3.93c3.9,0.37,7.27-2.13,10.25-4.34   c4-3.22,8.53-5.79,12.06-9.59c-7.72-5.11-17.76,1.82-25.48-3.17c9-2.96,16.36-9.26,22.06-16.69c-5.51-3.25-12.08-2.71-18.19-3.45   c1.44-2.04,3.26-3.83,4.47-6.04c0.37-2.43,0.07-4.93,0.6-7.33c0.88-2.73,2.14-5.33,3.28-7.96   C1893.03,580.08,1895.81,577.93,1898.8,576.08z"
     style="fill:#305f40;fill-opacity:1;stroke:#305f40;stroke-opacity:1;stroke-width:1.2;stroke-miterlimit:4;stroke-dasharray:none" /><path
     fill="#18202E"
     stroke="#18202E"
     id="path140"
     d="M1249.69,575.58c0.36-2.11,0.38-4.49,2.12-6.02c0.22,2.3,0.35,4.62,0.44,6.94   c1.16-0.21,2.33-0.4,3.53-0.58c-0.57,1.36-1.14,2.72-1.69,4.08c1.98,0.04,3.97,0.08,5.97,0.13c-0.79,2.67-1.5,5.37-2.11,8.08   c0.51,0.06,1.54,0.18,2.05,0.24c-0.35,1.54-0.69,3.07-1,4.63c2.31-0.94,4.61-1.93,6.91-2.94c0.03,1.45,0.27,2.92,0.07,4.38   c-0.91,1.39-2.17,2.53-3.22,3.81c1.03,0.05,2.08,0.11,3.14,0.18c0.45,2.41,0.21,4.89-1.48,6.8c2.08-0.74,4.15-1.67,6.37-1.97   c2.1,0.44,3.88,1.75,5.79,2.71c-1.69,0.98-3.38,1.94-5.08,2.89c-0.61,2.97,2.19,4.07,4.51,4.84c-0.82,1.9-1.39,3.94-2.56,5.67   c-1.75,1.5-3.82,2.57-5.76,3.78c1.99,0.2,3.99,0.43,5.99,0.74c1.77,2.37,4.49,3.51,7.24,4.37c-3.14,2.26-6.74,3.93-9.32,6.87   c3.17-0.7,6.41-0.38,9.41,0.89c-2.2,1.69-4.51,3.22-6.93,4.57c2.39,0.28,4.77,0.68,7.13,1.25c-2.21,2.46-4.69,4.67-7.3,6.68   c2.8,0.3,5.6,0.76,8.34,1.53c-2.41,3.85-6.88,5.38-10.55,7.7c3.45,0.06,6.91,0.07,10.37,0.13c-0.95,1.32-1.9,2.65-2.83,3.99   c2.25,0.68,4.75,1.81,6.98,0.39c3.48-1.89,7.47-1.61,11.29-1.6c0.44-0.38,1.31-1.15,1.75-1.53c-2.62-0.23-5.27-0.23-7.83-0.82   c-2.11-1.12-3.2-3.38-4.51-5.25c5.31-1.85,11.73-0.14,16.33-3.82c-2.36,0.02-4.7,0.34-7.03,0.11c-2.7-1.31-4.87-3.44-7.14-5.34   c4.73-1.68,10.22,1.44,14.3-2.18c-4.67,0.03-9.54-0.76-13.13-3.99c3.28-0.99,7.01-0.87,9.78-3.16c-1.77-0.57-3.49-1.18-5.03-2.17   c2.06-1.22,4.17-2.39,6.3-3.51c-0.06-1.64-0.32-3.26-1.28-4.63c-1.17-1.73-0.34-3.85-0.15-5.74c1.54-0.03,3.1-0.09,4.67-0.19   c-0.59-1.81-1.03-3.64-1.28-5.51c1.68,0.61,3.36,1.26,5.05,1.92c-0.69-1.37-1.37-2.71-2.04-4.06c1.41-0.63,2.62-1.58,3.69-2.69   c0.04,1.08,0.1,2.17,0.17,3.26c0.45,0.04,1.33,0.11,1.77,0.14c-0.13,0.73-0.24,1.47-0.33,2.22c0.99,0.16,1.99,0.33,3.01,0.51   c-0.19,2.58-0.3,5.17-0.33,7.77c1.56-0.55,3.14-1.11,4.73-1.66c-0.58,2.3-1.15,4.61-1.71,6.93c-2.33,0.85-4.62,1.81-6.79,2.99   c4.96,1.27,10.51-3.95,14.74,0.4c-2.67,1.53-5.47,2.78-8.27,3.98c2.37,1.23,4.9,2.14,7.47,2.96c-1.57,1.18-3.05,2.46-4.53,3.74   c0.73,0.08,1.48,0.18,2.24,0.29c0.69,2.67,3.91,1.82,5.95,2.45c-3.04,3.04-7.63,4-10.22,7.59c3.51,0.28,7.04,0.51,10.51,1.19   c-1.87,1.94-4,3.59-6.31,4.96c2.38,0.01,4.76,0.08,7.16,0.22c-2.18,2.68-5.39,3.87-8.68,4.48c2.93,2.76,7.31,2.77,10.86,4.44   c-2.79,4.23-8.1,4.12-12.51,3.22c1.61,1.15,3.03,2.55,4.56,3.82c3.48,0.83,7.13,0.58,10.7,1c-0.5,1.16-0.97,2.34-1.43,3.53   c-4.39,1.24-8.91,2.02-13.19,3.6c3.07,1.56,7.14,2.83,10.16,0.42c6.35-4.66,12.81-9.19,19.27-13.71c3.83-2.64,7.47-6.19,12.37-6.55   c9.56-1.09,19.11-2.32,28.68-3.45c3.91-0.94,6.73,2.36,9.46,4.57c7.22,6.71,17.48,8.23,25.6,13.46c4.42,3.92,7.89,8.77,12.06,12.96   c3.12,3.44,7.43,5.38,11.51,7.44c4.46,2.32,9.75,1.58,14.42,0.32c-1.8-0.52-3.61-0.89-5.3-1.6c-1.01-1.03-1.23-2.53-1.76-3.79   c2.17,0.21,4.36,0.48,6.55,0.75c-0.54-1.32-1.07-2.63-1.58-3.94c2.72-0.15,5.46-0.3,8.2-0.54c-2.95-2.06-6.51-3.2-9.1-5.75   c0.07-0.37,0.21-1.1,0.28-1.47c3.63-1.32,7.56-1.19,11.37-1.43c0.36-0.36,1.07-1.1,1.43-1.47c-2.59-0.23-5.2-0.27-7.72-0.86   c-1.54-1.24-2.57-2.97-3.72-4.53c3.28-1.23,6.72-2.2,10.28-2.02c2.01,0.21,3.77-0.79,5.39-1.88c-2.83-0.25-6.06,0.9-8.55-0.88   c-1.84-1.15-3.39-2.66-4.87-4.21c4.42-1.67,9.58,1.4,13.41-2.13c-4.43-0.32-9.68-0.38-12.55-4.35c3.23-0.33,6.59-0.55,9.47-2.25   c-1.54-0.76-3.08-1.5-4.6-2.24c1.9-1.31,4-2.4,5.7-3.99c0.78-1.26-0.59-2.34-1.04-3.42c-1.42-1.77-0.69-4.07-0.53-6.09   c1.49,0.2,3.04,0.19,4.51-0.27c-0.4-1.74-0.74-3.48-1.01-5.22c1.59,0.6,3.18,1.23,4.79,1.87c-0.69-1.38-1.36-2.74-2.02-4.1   c1.28-0.76,2.5-1.61,3.7-2.53c0.07,0.99,0.18,1.99,0.3,3c0.4,0.09,1.22,0.27,1.63,0.37c-0.09,0.72-0.16,1.46-0.22,2.2   c0.94,0.14,1.9,0.28,2.87,0.44c-0.56,2.53-0.9,5.1-1.03,7.69c1.64-0.57,3.27-1.16,4.92-1.76c-0.78,2.09-1.33,4.29-1.15,6.55   c-2.61,0.75-5.28,1.49-7.44,3.19c5.03,0.61,10.32-3.34,14.95-0.18c-2.46,1.54-5.03,2.89-7.69,4.03c0.2,0.32,0.61,0.96,0.82,1.27   c2.06,0.37,4.12,0.74,6.2,1.14c-1.41,1.56-3,2.93-4.75,4.08c2.54,1.15,5.1,2.26,7.79,3.04c-2.99,2.5-7.89,3.21-9.2,7.27   c3.11,0.23,6.24,0.37,9.37,0.59c-1.73,1.9-3.55,3.72-5.34,5.56c2.47-0.11,4.64-1.1,5.63-3.48c3.5,0.7,7.24,2.17,10.7,0.45   c-2.5-1.06-3.99-3.14-4.32-5.8c4.8-0.22,9.85,0.47,14.41-1.48c-2.56-0.5-5.1-0.93-7.62-1.43c-0.11-0.88-0.2-1.74-0.28-2.59   c-3.09-1.11-5.99-2.69-8.46-4.84c1.31-3.78,5.83-2.79,8.84-4.07c2.93-1.43,6.01,0.52,9.06,0.16c1.84-0.23,3.21-1.6,4.63-2.69   c-4.22-0.95-8.68-0.49-12.8-1.74c-2.51-2.34-4.43-5.22-6.55-7.89c3.49-1.53,7.32-1.62,11.05-1.06c0.1-0.9,0.23-1.79,0.37-2.67   c5.4,2.62,11.51,0.62,15.86-3.08c-4.31-0.16-8.56,1.21-12.82,0.84c-3.4-2.9-7.08-5.42-10.52-8.26c4.22-1.68,8.92-1.9,13.28-0.63   c3.59,1.05,6.75-1.5,8.99-4.01c-1.74,0.37-3.46,0.89-5.21,1.01c-2.8-0.77-5.51-1.87-8.36-2.37c-2.89-0.52-5.01-2.73-7.18-4.48   c2.43-1.19,5.13-1.36,7.8-1.3c2.8,0.16,5.13-1.6,7.49-2.87c-0.35-0.6-0.68-1.2-0.98-1.79c-2.1-0.3-4.19-0.6-6.27-0.76   c2.13-4.03,6.69-5.45,10.36-7.67c-0.95-0.73-1.86-1.46-2.77-2.18c1.24-0.59,2.5-1.16,3.78-1.74c-2.04-0.99-4.04-2-6.02-3.06   c0.77-0.59,1.57-1.16,2.38-1.73c-1.14-2.45-0.55-5.06,0.11-7.54c1.14,0.46,2.28,1.01,3.52,1.28c2.06-0.18,2.94-2.3,4.05-3.75   c-1.27-0.54-2.51-1.05-3.71-1.64c0.82-0.55,1.65-1.1,2.51-1.65c-0.53-0.91-1.04-1.82-1.53-2.73c3.68,0.32,6.6,2.51,8.97,5.19   c-1.17-3.52-2.81-6.83-4.35-10.18c1.15,0.52,2.29,1.06,3.47,1.61c0.5-1.91,0.38-4.32,2.31-5.46c0.18,2.28,0.3,4.58,0.4,6.88   c1.2-0.31,2.42-0.6,3.66-0.88c-0.62,1.41-1.25,2.81-1.84,4.23c1.98,0.08,3.98,0.16,5.99,0.23c-1.83,4.04-1.85,8.49-1.44,12.83   c2.58-0.82,5.09-1.88,7.58-2.99c0.05,3.09-0.87,5.99-3.63,7.67c1.02,0.88,2.03,1.76,3.09,2.67c-2.48,0.79-4.99,1.44-7.36,2.47   c-2.09,1.09-4.36,1.68-6.66,1.97c2.51,2.64,6.22,1.7,9.1,0.29c3.26-0.1,6.46-0.61,9.54-1.73c2.27,0.32,4.72,1.2,6.14,3.14   c-3.15,0.92-5.5,3.31-8.47,4.56c-1.39,0.45-2.81,0.85-4.17,1.29c0.77,2.87,3.8,2.97,6.26,3.04c1.65,0.2,3.29,0.51,4.96,0.82   c-0.22,0.97-0.43,1.95-0.61,2.94c-2.5,1.35-4.93,2.79-7.31,4.3c1.67,0.13,3.37,0.28,5.08,0.47c0.07,1.1,0.17,2.21,0.28,3.33   c2.78-0.44,5.6-0.26,8.26,0.76c-4.43,5.08-12.78,5.35-15.71,11.9c5.17,1.57,10.75,0.11,15.85,1.97c-2.37,3.61-6.17,5.75-9.71,8   c3.77-0.04,7.56-0.12,11.34,0.13c-2.29,2.8-5.19,5.19-8.6,6.45c-1.72-0.1-3.35-0.71-4.97-1.14c0.12,1.16,0.26,2.33,0.42,3.5   c5.5,2.43,11.79,2.61,16.98,5.82c-4.54,5.62-12.8,7.36-19.31,4.37c-0.44-0.18-1.32-0.53-1.76-0.7c3.02-1.74,6.49-0.54,9.76-0.61   c2.28-0.02,4.37-1.08,6.46-1.91c-3.49-2.98-8.88-3.66-12.95-1.5c-4.67,2.31-9.26,4.81-14.03,6.92   c-6.27,2.67-10.48,8.27-16.04,12.01c-5.36,3.65-10.22,8.14-16.21,10.78c-6.1,2.77-12.73,5.06-17.45,10.05   c3.8,1.59,8.05,2.18,12.12,1.33c2.3-0.33,4.59-1.28,6.95-0.99c1.5,0.88,2.51,2.36,3.69,3.64c-2.66,2.17-5.69,3.83-8.92,4.97   c-0.43-0.44-1.27-1.32-1.69-1.76c2.93-1.13,5.88-2.35,8.39-4.31c-6.55,0.32-13.05,2.03-19.59,0.51c-0.39,0.35-1.18,1.07-1.58,1.43   c3.29,1.1,6.78,1.05,10.22,1.13c0.1,0.53,0.29,1.58,0.38,2.11c-4.7,1.56-11.53,0.64-12.59-5.12c-6.38,3.91-12.04,8.95-18.93,12.01   c-18.58,8.69-35.44,20.63-54.29,28.76c-5.77,2.61-11.31,5.86-17.51,7.39c-17.02,4.62-33.62,10.89-51.01,14.05   c-13.28,3.02-26.48,6.32-39.78,9.23c-9.22,1.74-18.48,3.28-27.64,5.36c-9.41,1.84-18.06,6.81-27.8,7.06   c-11.39,0-22.73,1.26-33.93,3.24c-19.91,2.65-40.02,3.17-60.01,4.81c-12.26,0.17-24.55,2.52-36.79,0.75   c-11.49-1.69-23.06-2.96-34.41-5.45c-2.99,3.59-5.17,7.81-8.56,11.07c-4.52,4.48-9.08,8.92-13.48,13.52   c-1.53,1.47-2.97,3.42-5.28,3.52c5.39-8.06,13.44-13.8,19.58-21.22c5-6.91,7.98-15.12,13.13-21.9c8.18-5.9,17.57-10.03,25.75-15.96   c-2.1-2.91-4.13-5.88-5.88-9.01c10.26-5.8,20.62-11.42,30.94-17.11c2.59-1.5,4.86-3.45,7.11-5.4c4.92,0.43,9.86,2.78,14.81,1.25   c4.46-1.25,8.98-2.32,13.44-3.6c3.57-0.9,4.64-4.93,6.71-7.54c4.45,0.75,8.98-0.22,13.26-1.43c-3.75-1.31-7.59-2.45-10.99-4.52   c2.06-1.26,4.19-2.41,6.37-3.48c-1.39-0.53-2.74-1.06-4.09-1.6c0.01-2.02-0.38-4.01-1.38-5.77c1.92,0.02,3.84,0.02,5.79,0   c-1.47-0.79-2.93-1.55-4.37-2.32c-0.07-2-0.51-3.95-1.45-5.7c2.48,0.06,4.98,0.07,7.48,0.07c-1-1.29-1.98-2.59-2.95-3.88   c2.83-0.08,5.66-0.12,8.51-0.16c-3.08-2.33-6.39-4.48-8.67-7.66c2.26-0.25,4.54-0.45,6.83-0.65c0.24-0.62,0.74-1.88,0.99-2.51   c3.18,0.78,6.41,1.48,9.71,1.52c-2.43-1.01-5.05-1.44-7.49-2.36c-2.56-1.52-2.83-4.7-2.86-7.36c3.97,0.77,8.31,2.76,12.19,0.56   c-1.09-0.36-2.16-0.71-3.21-1.04c-0.98-2.61-2.16-5.14-3.46-7.59c1.59-1.25,3.17-2.5,4.74-3.77c-1.55-1.16-3.1-2.3-4.63-3.44   c0.77-3.51,4.54-3.66,7.42-3.18c-1.6-1.61-3.13-3.28-4.65-4.95c1.73-0.67,3.44-1.41,5.1-2.28c-1.76-2-3.52-3.99-5.23-6.01   c3.6-1.41,7.48-1.62,11.28-0.97c-2.42-1.49-4.92-2.97-6.66-5.27c2.24-1.3,4.8-1.25,7.27-0.81c-0.94-3.54-4.87-4.57-7.65-6.25   c1.22-1.39,2.21-3,3.6-4.24c3.41-0.61,6.95-0.06,10.31-1.13c-1.53-0.6-3.11-1.02-4.7-1.3c-3.14-0.38-5.38-2.83-7.74-4.66   c2.35-1.15,4.97-1.31,7.55-1.27c2.89,0.18,5.3-1.73,7.3-3.59c-0.66-2.69-6.95-0.07-6.27-3.4c2.6-2.05,5.48-3.86,7.13-6.85   c-0.56-2.1-1.49-4.27-0.91-6.47c0.76-3.03-0.27-6.22,0.97-9.18c1.15,0.51,2.31,1.04,3.48,1.59c1.49-1.05,2.84-2.29,3.93-3.76   c-0.65-0.26-1.96-0.76-2.61-1.02c0.32-0.9,0.66-1.8,1.02-2.69c-0.3-0.86-0.59-1.71-0.86-2.55c3.31,0.54,6.17,2.3,8.78,4.33   c-1.36-3.28-2.91-6.47-4.42-9.67C1247.14,573.95,1248.42,574.76,1249.69,575.58 M1536.78,588.26c1.23,2.25,2.32,4.99,5,5.85   c0.29-0.55,0.88-1.66,1.18-2.21C1541.85,589.42,1539.14,588.86,1536.78,588.26 M1266.09,611.81c-1.08-0.2-2.13-0.38-3.18-0.55   c1.78,3.18,6.17,1.67,7.26-1.3C1268.78,610.55,1267.43,611.18,1266.09,611.81 M1533.13,612.3c-0.91,0.76-1.78,1.57-2.33,2.61   c1.36,0.12,2.75,0.24,4.16,0.34c0.21-0.53,0.63-1.6,0.84-2.14C1534.89,612.84,1534,612.57,1533.13,612.3 M1305.37,620.17   c-0.99,1.23,0.94,3.35,2.26,2.41C1308.69,621.32,1306.67,619.14,1305.37,620.17 M1301.38,635.07   C1301.49,638.4,1304.36,633.53,1301.38,635.07 M1479.45,641.17c-0.89,1.09,0.73,3.15,1.97,2.25   C1482.4,642.3,1480.66,640.19,1479.45,641.17 M1475.42,655.21c-1.04,1.25,1.25,2.3,2.03,1.19   C1478.46,655.13,1476.15,654.09,1475.42,655.21 M1281.16,670.29c2.03,0.71,4.12,1.53,5.38,3.41c0.55,0.13,1.63,0.38,2.17,0.5   c-1.06-1.34-2.04-2.74-2.92-4.17c2.81-0.12,5.63-0.15,8.45-0.33c-1.28-0.65-2.55-1.24-3.83-1.81c-0.02-0.43-0.08-1.27-0.11-1.7   c-0.46-0.13-1.4-0.41-1.87-0.54C1285.13,664.14,1282.31,667.55,1281.16,670.29 M1493.81,681.4c0.24,0.99,0.86,1.63,1.85,1.92   c4.94,1.78,11.05,2.91,15.69-0.24c-3.83-0.28-7.86-0.66-10.42-3.88C1498.75,680.49,1496.32,681.2,1493.81,681.4 M1491.93,689.11   c0.98,1.04,2.32,1.6,3.69,2.05c-0.12,0.49-0.37,1.46-0.49,1.94c2.39,0.16,4.8,0.33,7.22,0.4   C1499.9,690.32,1495.76,689.23,1491.93,689.11 M1289.29,694.16c-2.77,1.35,0.85,2.64,1.97,0.99   C1292.63,693.87,1289.99,693.42,1289.29,694.16 M1288.04,723.87c2.1,0.79,5.18,1.36,5.2-1.89   C1291.34,722.13,1288.77,721.54,1288.04,723.87 M1204.47,728.06c0.18,1.35,0.89,1.62,2.12,0.8   C1206.37,727.48,1205.67,727.21,1204.47,728.06z"
     style="fill:#305f40;fill-opacity:1;stroke:#305f40;stroke-opacity:1;stroke-width:1.2;stroke-miterlimit:4;stroke-dasharray:none" /><path
     fill="#131D2E"
     stroke="#131D2E"
     id="path172"
     d="M0,626.41c2.36,3.85,3.99,9.04,9.16,9.7c2.54,8.22,4.21,16.68,6.47,24.98   c0.57,2.11,0.89,4.35,1.94,6.3c3.98,3.21,8.9,4.97,13.11,7.85c-0.81,1.94-1.63,3.88-2.46,5.82c2.84,1.39,5.94,2.33,8.52,4.19   c1.52,2,2.32,4.42,3.31,6.7c-3.06-0.08-6.13,0.03-9.19,0.21c-0.43,2.81,1.08,4.9,3.45,6.22c-0.46,1.44-0.93,2.89-1.38,4.35   c2.77,0.14,5.54,0.3,8.3,0.53c-1.92,1.5-3.94,3.07-6.42,3.45c-6.87,1.38-13.09-3.09-19.91-2.87c-0.04,5.31,1.15,11.29,5.5,14.8   c5.72,4.1,13.08,3.25,19.71,3.57C28.05,729.84,13.33,726,0,727.72V626.41z"
     style="fill:#305f40;fill-opacity:1;stroke:#305f40;stroke-opacity:1;stroke-width:1.2;stroke-miterlimit:4;stroke-dasharray:none" /><path
     fill="#496773"
     stroke="#496773"
     id="path178"
     d="M1681.81,634.32c3.19,1.72,6.64,2.72,10.18,3.46   C1688.4,637.72,1684.07,637.55,1681.81,634.32z"
     style="fill:#305f40;fill-opacity:1;stroke:#305f40;stroke-opacity:1;stroke-width:1.2;stroke-miterlimit:4;stroke-dasharray:none" /><path
     fill="#1A2333"
     stroke="#1A2333"
     id="path186"
     d="M1702.08,652.31c4.27-1.94,8.56-4,11.99-7.27c3.32,1.93,6.4,4.36,10.04,5.7   c2.53-0.21,4.63-2.1,6.92-3.14c4.13,4.09,7.88,8.58,11.26,13.32c-0.85,2.34-1.65,4.7-2.41,7.08c1.9,0.42,3.84,0.84,5.81,1.08   c-0.13,1.15-0.26,2.31-0.2,3.48c1.19,1.43,2.74,2.51,4.21,3.68c-0.89,1.33-1.76,2.67-2.6,4.03c3.42,0.77,6.93,0.34,10.39-0.01   c-2.04,3.18-5.83,4.6-9.45,4.88c-6.84,0.56-12.95-3.73-19.79-3.18c0.56,5.78,1.49,12.56,6.77,16.02   c6.21,4.23,14.02,2.88,21.09,3.23c-9.8,6.24-21.87,6.32-33.08,5.82c1.75-1.59,3.45-3.26,5.04-5.02c-6.38-2.25-13.23,0.41-19.6-1.72   c6.41-3.33,13.19-7.29,16.56-13.98c-9.12-2.89-19.1,0.46-27.99-3.5c5.79-11.5,20.44-12.47,28.85-21.27   c-5.28-0.59-10.7-3.48-15.83-0.71c0.18-2.18,0.35-4.35,0.5-6.52c-2.91-0.42-5.83-0.16-8.7,0.26   C1701.91,654,1702.03,652.87,1702.08,652.31z"
     style="fill:#305f40;fill-opacity:1;stroke:#305f40;stroke-opacity:1;stroke-width:1.2;stroke-miterlimit:4;stroke-dasharray:none" /><path
     fill="#1A2333"
     stroke="#1A2333"
     id="path190"
     d="M556.69,655.61c0.39-1.29,0.33-3.01,1.77-3.64c0.19,1.52,0.36,3.06,0.53,4.6   c0.56,0.01,1.67,0.04,2.22,0.06c-0.32,1.1-0.65,2.2-0.96,3.32c1.46,0.02,2.94,0.04,4.42,0.07c-0.57,3.33-0.92,6.7-1.11,10.08   c2-0.71,3.97-1.47,5.96-2.24c0.05,1.16,0.12,2.32,0.2,3.49l0.05,0.91c-0.86,0.26-1.72,0.55-2.56,0.85   c0.48,1.11,0.97,2.23,1.47,3.35c-3.65,0.83-7.26,1.82-10.72,3.23c6.63,2.81,13.73-3.93,20.09,0.39c-3,2.57-6.72,3.92-10.34,5.33   c2.22,2.91,6.24,2.25,9.43,3.03c-1.37,2.47-3.85,3.89-6.17,5.33c1.11,0.23,2.22,0.47,3.34,0.71c0.15,0.67,0.31,1.35,0.48,2.03   c2.14,0.13,4.28,0.32,6.42,0.62c-3.15,4.46-10.21,4.39-12.37,9.76c4.11,0.66,8.27,0.77,12.41,1.21c-1.91,2.71-4.58,4.71-7.26,6.6   c2.77-0.18,5.56-0.21,8.33,0.13c-2.55,3.21-6.22,5.58-10.47,4.68c0.11,0.54,0.34,1.62,0.45,2.16c4.29,1.54,8.84,2.31,12.97,4.31   c-1.52,1.63-2.97,3.6-5.27,4.12c-3.38,1.13-6.94,0.23-10.39,0.07c1.68,1.07,3.47,1.96,5.34,2.69c-0.69,0.72-1.36,1.44-2.03,2.17   c5.29,0.07,10.6,0.3,15.86,0.98c-0.49,1.11-0.97,2.22-1.44,3.35c4.87-2.16,8.71-5.91,12.85-9.15c6.69-5.32,13.31-10.72,20.08-15.93   c2.98-2.2,4.87-5.44,6.88-8.47c6.85,2.28,12.92,6.52,19.83,8.57c5.65-0.14,11.01-2.67,16.72-2.48c0.58,2.14,1.02,4.37,1.99,6.39   c2.42,2.43,5.71,3.71,8.61,5.45c4.81,2.48,9.13,6.01,14.44,7.43c-0.6,0.94-1.24,1.86-1.84,2.81c2.78,0.06,5.57,0.12,8.37,0.23   c-2.86,2.04-6.22,3.96-9.86,3.36c-4.43-0.74-8.67-2.45-13.2-2.64c0.52,4.52,1.17,9.83,5.18,12.7c4.63,3.13,10.48,2.3,15.77,2.65   c-10,6.22-22.2,3.74-33.3,4.74c5.9,7.27,13.62,13.56,23.01,15.43c-4.98,1.59-10.05,2.88-15.05,4.41   c-5.2,1.57-10.67,1.33-16.02,1.42c1.31,1.52,2.65,3.03,4,4.55c-0.89,1.59-1.75,3.19-2.59,4.81c6.26,2.82,12.6,5.47,18.92,8.17   c6.82,2.9,14.55,2.88,21.64,1.01c3.77-0.81,7.8-2.65,11.55-0.77c-4.1,3.56-9.51,4.95-14.52,6.71c-5.31,1.75-10.91,2.74-16.49,1.87   c-2.8-0.67-4.9,1.64-7.4,2.34c-3.2,0.4-6.46-0.26-9.62,0.43c-2.79,0.94-5.03,2.94-7.28,4.76c2.33,1.02,4.8,1.68,7.27,2.32   c0.91,0.82,1.57,2.19,2.92,2.4c4.38,0.86,8.89,1.09,13.16,2.52c0.35,1.43,0.72,2.87,1.1,4.33c2.35-0.2,4.76-0.79,7.11-0.31   c1.73,0.79,3.25,1.99,4.82,3.09c1.83-0.81,3.66-1.66,5.48-2.52c1.3,1.24,2.59,2.51,3.85,3.83c-6.8,4.15-14.39,8.66-22.65,8.1   c-4.98-0.18-8.79-4.14-13.71-4.51c0.52,1.26,1.06,2.52,1.6,3.79c-3.4-0.27-6.78-0.71-10.17-0.91c2.22,3.1,6.48,3.24,9.64,4.98   c-1.98,1.39-4.19,2.36-6.43,3.22c0.71,0.25,2.14,0.77,2.86,1.03c-0.71,1.18-2.42,2.15-2.12,3.69c1.64,0.47,3.33,0.77,5.02,1.13   c0.43,1.6,0.85,3.2,1.28,4.82c-4.94-1.07-9.95-2.15-15.02-1.53c-11.67,1.09-23.26-1.03-34.85-1.94c-3.14-0.29-5.86,1.56-8.54,2.89   c-6.32,3.43-12.91,6.34-19.21,9.81c-0.41,2.83-0.89,5.66-1.44,8.48c-1.88-0.36-3.79-0.59-5.57-1.28c-2.11-1.18-3.63-3.15-5.65-4.45   c-2.58,0.24-4.96,1.37-7.34,2.29c-4.99,2.07-10.16,3.69-15.06,5.95c-7.13,3.31-14.03,7.1-21.2,10.32   c-1.77-2.22-3.61-4.37-5.53-6.45c-1.51,2.22-2.57,5.24-5.45,5.99c-4.21,1.54-8.58,2.64-12.8,4.16c-4.24,1.36-8.61,3.38-13.17,2.42   c-6.87-1.28-13.6-3.19-20.47-4.48c-3.35-0.78-6.47,1.01-9.68,1.63c-2.22-1.41-3.42-4.65-6.57-4.07c-0.27,3.08-0.7,6.16-1.42,9.18   c-4.7-1.65-9.23-3.7-13.82-5.61c-0.09,0.51-0.28,1.55-0.37,2.06c-1.7-1.23-3.5-2.41-5.6-2.79c-6.21-1.45-12.52-2.44-18.63-4.28   c-0.42-1.78-0.84-3.56-1.24-5.33c-2.41-0.59-4.88-0.96-7.36-1.03c-10.57-0.48-21.1-1.67-31.67-2.01c-1.19,3.61-3.85,6.33-6.72,8.68   c-1.83-0.4-3.66-0.79-5.49-1.18c-1.85,2.08-3.62,4.94-6.83,4.54c-1.37-2.02-2.78-3.99-4.17-5.98c-0.73,2.66-0.88,6.03-4.02,6.94   c-1.74-1.16-3.4-2.54-5.39-3.23c-2.08-0.01-4.12,0.77-6.18,0.49c-4.16-1.21-7.7-3.91-11.83-5.17c-2.29-0.51-4.64,0.08-6.92,0.31   c2.46-0.91,5.26-1.73,6.39-4.36c0.81-2.46,3.5-1.48,5.45-1.59c-0.14-1.45-0.27-2.89-0.4-4.32c3.33,0.31,6.79,0.93,10.02-0.32   c-2.26-1.85-5.19-2.3-7.92-3.01c0.44-1.22,0.88-2.43,1.32-3.64c-7.21-0.48-14.7,0.62-21.67-1.72c4.99-2,10.71-2.17,15.21-5.29   c-0.59-1.06-1.16-2.11-1.74-3.16c2.38-0.34,4.75-0.85,6.88-2.01c-3.92-1.68-8.2-2.1-12.27-3.26c0.34-1.18,0.69-2.34,1.03-3.5   c2.16,0.14,4.32,0.44,6.48,0.24c2.78-0.89,4.57-3.36,6.29-5.55c-0.56-1.37-1.11-2.74-1.66-4.09c2.83-0.97,5.9-1.68,8.05-3.91   c-2.38,0.04-4.75,0.2-7.12,0.4c-0.6-0.93-1.21-1.86-1.8-2.77c-3.5-0.51-6.99-1.11-10.52-1.32c-3.64-0.24-7.21,0.89-10.85,0.71   c-3.95-0.53-7.61-2.34-10.85-4.58c3.07-1.66,6.05-3.48,9.05-5.24c2.99-1.83,6.62-1.89,9.77-3.27c2.59-2.08,4.14-5.11,5.99-7.8   c-4.09,0.02-8.16-0.28-12.23-0.65c-4.72-0.47-9.48,0.9-14.16-0.06c-4.51-0.92-8.87-2.45-12.99-4.47   c12.28-4.94,25.71-6.11,38.05-10.92c-0.53-1.08-1.06-2.16-1.59-3.22c1.34-1.2,2.66-2.41,3.96-3.65   c-11.67-3.5-24.11-1.73-35.95-4.33c2.13-1.21,4.29-2.41,6.03-4.16c-4.24-1.23-8.98-1.54-12.45-4.56c3.17-1.73,6.61-1.22,9.53,0.72   c2.25,1.65,4.83,0.2,7.12-0.51c3.24-1.18,6.72-1.34,10.11-1.76c1.63-3.29,4.51-5.57,7.6-7.41c-8-5.01-17.63-5.68-26.28-9.01   c1.36-1.31,2.72-2.62,4.09-3.91c-0.43-0.26-1.28-0.77-1.7-1.03c1.88-0.2,3.76-0.43,5.66-0.47c1.78,0.47,3.75,1.75,5.52,0.51   c7.19-3.84,13.72-8.85,20.98-12.54c2.35,0.55,4.21,2.3,6.27,3.5c-0.22-3.12-0.42-6.24-0.54-9.35c4,2.8,7.43,6.32,11.43,9.12   c0.52-2.69,1.06-5.37,1.66-8.03c2.35,0.05,4.75,0.17,6.96,1.04c6.01,2.2,11.92,4.66,17.97,6.75c4.71-6.65,8.6-13.84,13.03-20.69   c2.94-4.47,5.18-9.44,8.79-13.45c2.04,0.79,4.06,1.7,6.2,2.21c2.79-1.87,4.49-5.01,6.91-7.31c5.09,4.43,9.84,9.23,14.82,13.78   c2.27,2.22,5.48,2.83,8.45,3.56c6.41,1.48,12.75,3.25,19.16,4.76c2.64,0.71,5.84,1.17,7.11,3.98c4.69,8.08,10.65,15.31,15.83,23.08   c1.33,1.87,2.49,3.94,4.25,5.46c3.01,1.08,6.31,0.74,9.46,1.02c-0.94-0.79-1.86-1.57-2.78-2.35c-0.03-0.9-0.06-1.79-0.08-2.67   c3.38-0.09,6.76-0.09,10.12-0.43c-3.93-2.43-8.68-3.8-11.55-7.68c0.34-1.76,2.77-1.83,4.16-2.42c4.37-1.52,9.43,0.85,13.33-2.24   c-3.23-0.4-6.52-0.34-9.7-1c-2.58-1.3-3.92-4.06-5.59-6.27c4.28-1.08,8.59-2.37,13.05-2.22c2.75,0.24,5.13-1.23,7.3-2.71   c-3.06,0.06-6.1,0.28-9.14,0.56c-2.88-2.01-5.81-4.01-8.31-6.5c3.31-1.33,6.88-1.38,10.3-0.5c2.39,0.82,4.36-0.94,6.19-2.19   c-5.46-0.18-11.8-1.02-15.48-5.5c3.93-0.69,8.44,0.01,11.51-3.12c-1.85-0.79-3.73-1.51-5.61-2.21c2.31-2.03,5-3.53,7.78-4.79   c-0.42-0.69-0.83-1.37-1.23-2.05c0.76-0.5,1.53-1,2.31-1.49c-1.39-0.63-2.76-1.25-4.13-1.87c0.54-2.36,0.86-4.77,0.96-7.19   c1.98,0.38,4.25,0.98,5.77-0.78c-0.31-0.5-0.94-1.49-1.25-1.99c-0.06-1.32-0.13-2.63-0.2-3.94c2.17,0.96,4.32,2.01,6.43,3.13   c-1.08-2.08-2.13-4.16-3.15-6.25c0.85-0.04,1.71-0.07,2.57-0.09c0.61-1.17,1.23-2.32,1.87-3.46c0.24,1.46,0.49,2.93,0.74,4.41   c0.76,0.25,1.53,0.52,2.3,0.79c-0.4,0.89-0.79,1.79-1.18,2.71c1.45,0.05,2.89,0.11,4.35,0.18c-0.99,3.15-1.72,6.47-0.85,9.74   c1.83-0.63,3.66-1.25,5.52-1.82c-0.55,1.8-1.13,3.6-1.77,5.38c0.31,0.79,0.62,1.58,0.94,2.39c-3.56,0.94-7.05,2.14-10.57,3.19   c6.28,3.22,13.55-4.38,19.26,0.77c-3.14,2.12-6.52,4.06-10.39,4.26c0.63,0.75,1.27,1.5,1.91,2.28c2.52,0.39,5.04,0.73,7.57,1.09   c-0.83,2.89-3.83,3.96-6.17,5.35c1.1,0.24,2.21,0.5,3.32,0.77c0.24,0.46,0.72,1.37,0.96,1.83c1.97,0.18,3.94,0.46,5.89,0.84   c-3.31,3.85-9.21,4.32-11.83,8.9c3.86,1.07,7.88,0.97,11.85,1.23c-1.3,2.94-4.18,4.56-6.56,6.52c2.28,0.02,4.57,0.05,6.86,0.09   c-0.1,1.03-0.2,2.07-0.3,3.13c1.52-0.04,3.04-0.06,4.56-0.06c-1.15-1.74-2.15-3.56-2.97-5.47c3.76-0.23,7.63,0.29,11.27-0.88   c-2.27-0.73-5.69-0.08-6.37-3.03c-2.35-1.26-4.64-2.66-6.58-4.5c2.61-2.11,5.99-3,9.3-3.01c3.06,0.04,6.5,0.73,8.85-1.76   c-3.27-0.5-6.62-0.32-9.85-1.02c-2.48-1.43-3.91-4.1-5.59-6.33c4.72-1.66,9.74-2,14.68-2.42c2.51-0.15,4.55-1.72,6.54-3.08   c-3.28,0.14-6.57,1.13-9.84,0.78c-3-2.04-5.82-4.38-8.42-6.9c3.64-1.22,7.46-0.74,11.18-0.24c2.45,0.57,4.36-1.31,6.23-2.55   c-5.76,0.28-12.36-0.84-16.34-5.37c4.06-0.35,8.03-1.33,12.06-1.83c1.69-0.31,3.91,0.51,5.08-1.13c-3.76-0.59-7.61-0.95-11.14-2.46   c2.42-2.38,5.46-3.93,8.6-5.14c-0.7-0.72-1.38-1.43-2.07-2.13c0.89-0.49,1.79-0.98,2.69-1.46c-1.22-0.55-2.41-1.1-3.65-1.56   c0.75-2.65,0.2-5.43,0.82-8.1c1.08,0.42,2.16,0.85,3.26,1.28c0.75-0.7,1.52-1.39,2.28-2.08c-1.17-1.75-1.48-3.8-1.47-5.86   c2.39,0.8,4.64,1.96,6.79,3.28c-1.1-2.21-2.21-4.42-3.29-6.63C554.84,655.38,555.76,655.49,556.69,655.61 M551.93,666.82   c0.85,1.75,1.77,3.79,3.93,4.15C556.41,668.34,554.34,666.87,551.93,666.82 M498.83,685.15c0.85,2.01,2.23,3.71,4.1,4.88   C503.85,687.04,501.28,685.71,498.83,685.15 M496.19,703.35c-2.04-0.14-2.12,2.58-0.01,2.39   C498.21,706.17,498.2,702.91,496.19,703.35 M517.99,736.19c0.4,2.93,3.49,3.31,5.81,4.03c2.73,0.69,5.82,2.28,8.37,0.24   c-2.57-0.46-5.59-0.03-7.53-2.11C522.91,736.49,520.36,736.26,517.99,736.19 M570.51,744.95c4.94,2.73,10.84,2.04,16.27,1.98   c2.31-1.53,0.59-4.51,0.34-6.66C581.66,742.13,575.7,742.42,570.51,744.95 M517.3,746.37c-0.29,0.3-0.86,0.91-1.15,1.21   c1.59,0.5,3.19,1,4.79,1.5c-0.59,0.69-1.18,1.39-1.76,2.1c2.67-0.35,5.32-0.84,7.91-1.56C524.3,747.42,520.63,747.19,517.3,746.37    M577.35,755.04c0.67,0.39,2.02,1.18,2.69,1.58c1.34-1.37,2.38-2.98,3.11-4.75C581.04,752.58,579.1,753.68,577.35,755.04    M517.12,760.37c0.11,0.3,0.31,0.9,0.42,1.2c6.29,1.83,14.66,2.49,19.64-2.5c-4.04,0.47-8.07,1.95-12.14,0.92   C522.4,759.31,519.7,759.66,517.12,760.37z"
     style="fill:#305f40;fill-opacity:1;stroke:#305f40;stroke-opacity:1;stroke-width:1.2;stroke-miterlimit:4;stroke-dasharray:none" /><path
     sodipodi:nodetypes="cccccccccccccccccccccccccccccccccccccccccccccccccccccccccccccccccccccccccccccccccccccccccccccccccccccccccccccccccccccccccccccccccccccccccccccccccccccccccccccccccccccccccccccccccccccccccccccccccccccccccccccccccccccc"
     style="fill:#305f40;stroke:#305f40;fill-opacity:1;stroke-opacity:1;stroke-width:1.2;stroke-miterlimit:4;stroke-dasharray:none"
     inkscape:connector-curvature="0"
     id="path194"
     d="m 1562.29,664.3 c 4.07,-2.16 9.46,-1.48 12.95,1.5 -2.09,0.83 -4.18,1.89 -6.46,1.91 -3.27,0.07 -6.74,-1.13 -9.76,0.61 0.44,0.17 1.32,0.52 1.76,0.7 -0.13,0.47 -0.38,1.43 -0.51,1.9 2.17,0.67 4.35,1.34 6.55,2 -1.01,0.82 -2.01,1.65 -2.97,2.51 6.97,1.15 14.11,0.77 21.1,1.91 -1.06,1.44 -2.99,3.01 -1.58,4.88 -7.4,2.55 -15.22,3.52 -22.6,6.1 7.16,4.57 16.07,2.4 24.09,3.03 -1.63,2.15 -3.13,4.78 -5.94,5.51 -3.49,1.15 -6.88,2.63 -9.81,4.86 3.26,1.7 6.9,2.63 10.6,2.02 4.99,-0.85 9.63,1.5 14.39,2.57 -1.44,0.61 -2.85,1.24 -4.24,1.88 -0.31,1.85 -0.23,4.34 -2.29,5.22 -1.9,0.51 -3.87,0.65 -5.78,0.96 0.81,2.98 4.94,2.08 7.27,3.17 -0.97,0.79 -2.03,1.44 -3.18,1.89 -0.21,0.72 -0.4,1.46 -0.57,2.21 -2.64,0.82 -5.69,0.95 -7.7,3.03 3.59,0.34 7.37,0.87 10.92,-0.15 4.43,-3.19 7.46,-7.89 11.01,-11.98 4.88,-5.73 9.13,-12.04 14.69,-17.15 2.58,2.81 4.03,8.08 8.72,7.56 6.79,0.14 13.5,1.43 20.31,1.34 -2.47,2.78 -5.69,4.96 -9.44,5.46 -4.36,0.95 -8.48,-1.2 -12.71,-1.77 -1.78,0.45 -2.94,2.06 -4.32,3.12 -4.77,-0.78 -10.06,-0.46 -13.53,3.34 -1.75,4.83 4.83,5.28 7.16,8.09 1.99,2.58 5.29,2.46 8.26,2.56 -0.58,1.57 -1.11,3.16 -1.61,4.76 4.5,2 9.67,0.92 14.15,2.96 -8.02,3.6 -16.99,1.81 -25.46,2.38 0.09,2.23 1.31,4.09 2.7,5.77 -0.42,0.96 -0.84,1.92 -1.22,2.89 2.35,0.09 4.71,0.2 7.09,0.4 -2.54,2.48 -6.17,3.97 -9.71,3.16 -4.12,-0.9 -8.16,-2.29 -12.4,-2.44 0.58,4.48 1.2,9.8 5.32,12.52 4.55,3.23 10.4,2.3 15.65,2.75 -10,6.11 -22.21,3.68 -33.29,4.73 5.7,7.14 13.31,12.79 22.13,15.42 -4.62,1.87 -9.49,2.96 -14.23,4.43 -5.18,1.64 -10.67,1.35 -16.02,1.41 1.28,1.43 2.6,2.83 3.96,4.22 -0.79,1.74 -1.6,3.47 -2.43,5.18 6.58,2.74 13.09,5.66 19.7,8.35 6.83,2.82 14.54,2.45 21.55,0.53 3.52,-0.91 7.31,-2.28 10.81,-0.49 -2.47,1.82 -5.19,3.25 -8.05,4.32 -7.32,2.77 -15.06,5.52 -23,4.28 -2.8,-0.64 -4.9,1.66 -7.4,2.36 -3.21,0.38 -6.49,-0.34 -9.64,0.4 -2.65,0.97 -4.89,2.75 -7.16,4.35 1.93,1.35 4.28,1.72 6.47,2.55 4.46,4.53 11.43,2.45 16.83,5.07 0.3,1.4 0.64,2.82 1,4.25 2.11,-0.24 4.23,-0.57 6.39,-0.47 2.13,0.53 3.79,2.14 5.6,3.34 1.9,-0.87 3.79,-1.79 5.68,-2.71 1.06,1.47 2.08,2.98 3.08,4.52 -5.43,3.18 -11.18,6.13 -17.36,7.46 -6.37,1.35 -12.04,-2.32 -17.57,-4.81 0.18,1.41 0.37,2.81 0.59,4.24 -3.37,-0.31 -6.71,-0.75 -10.07,-0.93 2.25,3.29 6.95,2.82 9.73,5.54 -2.12,0.86 -4.28,1.59 -6.45,2.24 0.94,0.62 1.92,1.25 2.9,1.9 -0.94,0.92 -1.85,1.86 -2.74,2.81 1.67,0.5 3.39,0.88 5.13,1.2 1.2,2.25 1.78,5.16 4.14,6.55 2.9,1.72 5.98,3.17 8.68,5.25 -7.07,0.43 -14.11,-0.91 -21.17,-0.41 -14.67,1.04 -29.29,3.05 -44.03,2.99 -7.9,0.85 -16.24,-0.43 -23.67,2.94 -6.27,2.46 -12.59,4.76 -18.86,7.2 -5.86,2.32 -12.23,2.44 -18.43,2.63 -7.94,0.21 -15.85,1.39 -23.8,1.01 -0.51,-0.84 -1,-1.67 -1.48,-2.49 -1.39,1.11 -2.74,2.79 -4.72,2.38 -16.6,-1.56 -33.17,-3.65 -49.61,-6.44 -12.9,-3.81 -25.13,-6.93633 -37.93,-10.99633 -3.52,0.08 -23.821,3.77199 -28.101,0.86199 -41.1866,10.29561 -43.4798,-3.36929 -43.2398,1.50071 -6.2,0.62 -7.4669,-0.81903 -13.5069,0.96097 -7.19,3.16 -14.5623,2.82266 -21.8523,5.74266 -11.77,1.74 -23.78,1.22 -35.58,2.72 -2.43,0.5 -4.36,2.16 -6.34,3.52 -5.57,4.15 -11.49,7.79 -17.09,11.87 -2.81,1.85 -5.37,4.46 -8.8,5.01 -11.23,1.12 -22.58,0.99 -33.77,2.48 -4.78,1.72 -8.11,5.94 -12.27,8.71 -4.86,3.47 -9,8.2 -14.77,10.19 -4.55,1.54 -9.23,2.66 -13.74,4.3 -9.66,3.85 -20.27,3.17 -30.45,3.79 -3.36,0.5 -5.87,-1.99 -8.8,-3.06 -3.63,1.96 -6.55,5.16 -10.55,6.42 -3.14,0.8 -6.42,0.57 -9.62,0.77 -13.18,0.62 -26.36,2.28 -39.55,1.17 -5.5,-0.62 -11.56,0.68 -16.51,-2.36 -16.27,-9.45 -32.76,-18.53 -48.91,-28.19 -8.47,-5.91 -19.21,-5.72 -28.93,-7.99 -7.46,-1.17 -13.75,-5.59 -20.63,-8.39 -4.15,-1.65 -8.1,-5.03 -12.84,-3.94 -3.66,0.9 -6.5,-2.07 -9.8,-2.97 -2.34,0.05 -4.59,0.8 -6.84,1.33 -3.07,-2.2 -5.85,-4.76 -8.63,-7.3 -4.92,-4.29 -8.84,-10.01 -15.29,-12.18 0.3,-1.7 0.63,-3.39 0.98,-5.07 2.68,0.18 5.35,0.32 8.04,0.45 -1.6,-1.43 -3.22,-2.84 -4.83,-4.23 -0.01,-1.13 -0.03,-2.24 -0.02,-3.34 -3.46,-1.16 -6.73,-2.78 -9.94,-4.47 -2.9,-1.7 -6.29,-0.36 -9.41,-0.3 2.06,-0.82 4.27,-1.3 6.24,-2.33 0.57,-1.26 0.98,-2.58 1.44,-3.86 2.02,-0.17 4.04,-0.31 6.07,-0.44 -0.5,-1.34 -1,-2.68 -1.49,-4.01 3.67,0.04 7.35,0.11 11.01,-0.2 -1.63,-2.75 -5.28,-2.67 -7.94,-3.79 0.15,-1.26 0.31,-2.52 0.48,-3.77 -7.57,-0.34 -15.25,0.34 -22.68,-1.41 5.33,-2.65 11.38,-3.26 16.77,-5.79 -0.86,-1.29 -1.72,-2.58 -2.57,-3.85 2.07,-0.25 4.16,-0.49 6.25,-0.73 0.07,-0.5 0.22,-1.5 0.3,-2 -3.87,-0.84 -7.75,-1.61 -11.59,-2.56 -0.02,-1.25 -0.04,-2.48 -0.04,-3.71 1.75,0.09 3.51,0.23 5.28,0.26 4.13,0.29 6.55,-3.86 9.12,-6.45 -0.6,-1.35 -1.2,-2.7 -1.77,-4.04 2.89,-1.36 6.69,-1.61 8.5,-4.57 -2.62,0.02 -5.22,0.14 -7.82,0.24 -0.57,-0.96 -1.11,-1.9 -1.66,-2.84 -3.44,0.05 -6.85,-0.44 -10.21,-1.1 -4.04,-0.85 -7.96,1.08 -11.99,0.85 -4.53,-0.4 -8.78,-2.32 -12.43,-4.97 3.33,-1.71 6.52,-3.7 9.73,-5.62 3.02,-1.91 6.85,-1.51 9.96,-3.14 3.12,-2.7 5.27,-6.3 7.95,-9.41 -4.29,0.92 -8.69,0.79 -13,0.08 -5.61,-0.9 -11.3,1.12 -16.86,-0.25 -4.72,-1.12 -9.35,-2.65 -13.82,-4.5 1.75,-0.9 3.59,-1.61 5.5,-2.09 12.01,-3.3 24.27,-5.7 36.07,-9.74 -0.83,-1.23 -1.66,-2.46 -2.47,-3.68 1.8,-1.02 3.6,-2.11 4.9,-3.75 -12.7,-3.67 -26.15,-1.99 -39.04,-4.6 2.49,-1.2 4.98,-2.47 7.06,-4.34 -4.84,-1.33 -10.06,-1.96 -14.16,-5.1 1.95,-0.52 3.92,-1.24 5.99,-1.19 3.27,0.65 6.16,4.06 9.65,2.44 4.21,-1.68 8.66,-2.53 13.19,-2.62 1.48,-2.19 2.92,-4.53 5.29,-5.87 0.93,-0.83 2.57,-1.24 2.59,-2.72 -8.59,-5.45 -19.27,-5.37 -28.27,-9.72 -3.12,-1.32 -2.04,-4.78 -1.59,-7.34 2.03,1.05 4.01,2.32 6.27,2.85 2.74,0.38 5.02,-1.48 7.13,-2.94 3.4,-2.6 7.19,-4.8 9.95,-8.14 -6.55,-2.43 -13.54,0.26 -20.21,-1.42 6.48,-3.33 13.31,-6.88 17.1,-13.44 -0.51,-0.34 -1.52,-1.02 -2.03,-1.35 1.59,-0.13 3.18,-0.34 4.78,-0.55 1.16,1.39 2.32,2.79 3.48,4.2 6.53,-0.52 13,-1.98 19.6,-1.46 5,8.81 9.21,18.05 13.95,27.01 1.79,3.22 2.97,6.86 5.41,9.68 3.09,2.12 6.65,3.44 10.03,5.03 4.47,2.36 9.83,-1.29 14.12,1.93 -1.92,2.31 -3.88,4.57 -5.74,6.93 2.78,-0.95 5.56,-1.93 8.34,-2.89 3.05,2.78 5.85,5.82 8.97,8.53 2.72,3.63 1.19,8.94 4.47,12.28 5.08,5.58 10.57,10.78 15.75,16.26 4.08,4.43 10.09,5.98 15.28,8.67 5.56,2.47 10.8,5.83 16.77,7.25 7.55,1.58 15.14,2.91 22.73,4.31 2.53,0.41 4.87,1.56 6.9,3.13 5.55,4.13 11.33,7.96 17.03,11.89 8.66,5.49 14.86,13.83 22.32,20.72 2.82,2.28 4.72,5.4 5.04,9.08 5.63,0.68 11.33,0.82 16.91,1.91 1.1,2.33 2.16,4.68 3.16,7.07 7.4,1.04 14.89,1.33 22.35,1.78 4.37,-5.13 7.73,-11.01 11.86,-16.32 2.31,-0.1 3.75,-2.05 5.28,-3.52 4.4,-4.6 8.96,-9.04 13.48,-13.52 3.39,-3.26 5.57,-7.48 8.56,-11.07 11.35,2.49 22.92,3.76 34.41,5.45 12.24,1.77 24.53,-0.58 36.79,-0.75 19.99,-1.64 40.1,-2.16 60.01,-4.81 11.2,-1.98 80.15,-13.92 89.37,-15.66 13.3,-2.91 26.5,-6.21 39.78,-9.23 17.39,-3.16 33.99,-9.43 51.01,-14.05 6.2,-1.53 11.74,-4.78 17.51,-7.39 18.85,-8.13 35.71,-20.07 54.29,-28.76 6.89,-3.06 12.55,-8.1 18.93,-12.01 1.06,5.76 7.89,6.68 12.59,5.12 -0.09,-0.53 -0.28,-1.58 -0.38,-2.11 0.85,0.36 1.71,0.77 2.56,1.24 0.42,0.44 1.26,1.32 1.69,1.76 3.23,-1.14 6.26,-2.8 8.92,-4.97 -1.18,-1.28 -2.19,-2.76 -3.69,-3.64 -2.36,-0.29 -4.65,0.66 -6.95,0.99 -4.07,0.85 -8.32,0.26 -12.12,-1.33 4.72,-4.99 11.35,-7.28 17.45,-10.05 5.99,-2.64 10.85,-7.13 16.21,-10.78 5.56,-3.74 9.77,-9.34 16.04,-12.01 4.77,-2.11 9.36,-4.61 14.03,-6.92 z" /><path
     fill="#18202F"
     stroke="#18202F"
     id="path202"
     d="M1644.95,676.04c3.79-0.01,7.58-0.25,11.36-0.59c-2.79,3.14-6.78,4.71-10.55,6.32   c-5.21,2.06-11.57,2.51-16.33-0.89c1.22-1.14,2.48-2.27,3.77-3.36C1637.19,677.72,1640.96,676.02,1644.95,676.04z"
     style="fill:#305f40;fill-opacity:1;stroke:#305f40;stroke-opacity:1;stroke-width:1.2;stroke-miterlimit:4;stroke-dasharray:none" /><path
     fill="#141D2D"
     stroke="#141D2D"
     id="path212"
     d="M1867.05,714.41c17.37-5.82,35.68-8.29,52.95-14.43v22.06c-8.01-0.34-15.98-1.97-24-1   C1885.91,722.17,1875.97,718.8,1867.05,714.41z"
     style="fill:#305f40;fill-opacity:1;stroke:#305f40;stroke-opacity:1;stroke-width:1.2;stroke-miterlimit:4;stroke-dasharray:none" /><path
     fill="#182130"
     stroke="#182130"
     id="path218"
     d="M1704.92,710.13c1.22,0.73,2.45,1.49,3.76,2.14c2.9,1.84,6.93-1.46,9.43,1.56   c6.47,6.68,14.61,11.97,23.9,13.59c-1.82,0.94-3.82,1.57-5.86,1.6c-5.86-5.46-14.13-6.57-21.58-8.53   c-3.64-1.05-8.02-1.53-10.41-4.81C1703.7,713.79,1704.48,711.93,1704.92,710.13z"
     style="fill:#305f40;fill-opacity:1;stroke:#305f40;stroke-opacity:1;stroke-width:1.2;stroke-miterlimit:4;stroke-dasharray:none" /><path
     fill="#131C2C"
     stroke="#131C2C"
     id="path222"
     d="M1913.38,733.46c2.68-1.78,4.62-4.44,6.62-6.92v22.26c-4.74,0.31-9.3,1.72-14.01,2.1   c-6.55-0.02-12.82-2.79-18.04-6.58c4.33-1.97,8.39-4.45,12.38-7.04C1904.2,734.6,1909.19,735.25,1913.38,733.46z"
     style="fill:#305f40;fill-opacity:1;stroke:#305f40;stroke-opacity:1;stroke-width:1.2;stroke-miterlimit:4;stroke-dasharray:none" /><path
     fill="#131C2D"
     stroke="#131C2D"
     id="path226"
     d="M0,728.63c5.04,5.16,10.21,10.42,16.62,13.87c3.21,1.8,6.79,2.72,10.23,3.96   c-8.84,2.63-17.61,5.87-26.85,6.79V728.63z"
     style="fill:#305f40;fill-opacity:1;stroke:#305f40;stroke-opacity:1;stroke-width:1.2;stroke-miterlimit:4;stroke-dasharray:none" /><path
     fill="#161D2B"
     stroke="#161D2B"
     id="path230"
     d="M1698.01,737.1c3.42-1.54,7.3,0.78,8.98,3.84   C1703.87,740.12,1700.07,739.88,1698.01,737.1z"
     style="fill:#305f40;fill-opacity:1;stroke:#305f40;stroke-opacity:1;stroke-width:1.2;stroke-miterlimit:4;stroke-dasharray:none" /><path
     fill="#1A2333"
     stroke="#1A2333"
     id="path242"
     d="M163.08,761.57c7.85-1.27,13.21-10.39,21.72-8.28c6.3,1.82,12.43,4.18,18.63,6.3   c3.23,2.12,7.13,1.48,10.75,2.14c-1.52,0.03-3.04,0.09-4.55,0.19c-0.14,2.23,1.8,2.38,3.53,2.54c-7.35,1.65-15.31-1.16-22.25,2.22   c-5.17,0.55-10.4,2.35-15.6,1.02C170.88,766.57,166.33,764.9,163.08,761.57z"
     style="fill:#305f40;fill-opacity:1;stroke:#305f40;stroke-opacity:1;stroke-width:1.2;stroke-miterlimit:4;stroke-dasharray:none" /><path
     fill="#192232"
     stroke="#192232"
     id="path244"
     d="M1764.05,756.89c2.46-0.89,4.97-0.02,7.11,1.3c-1.87,1.98-4.47,2.94-6.87,4.08   c-8.36,3.75-17.21,6.56-26.34,7.58c-3.65,0.4-7.2-1.13-10.82-0.8c-1.85,0.74-3.08,2.43-4.52,3.71c-4.48-0.23-8.97-1.25-13.43-0.41   c-3.17,0.67-6.51-0.2-9.07-2.12c10.56-3.8,21.7-5.61,32.45-8.79c2.26-0.7,4.61-1.31,7.02-1.03   C1747.9,761.15,1756.1,759.09,1764.05,756.89z"
     style="fill:#305f40;fill-opacity:1;stroke:#305f40;stroke-opacity:1;stroke-width:1.2;stroke-miterlimit:4;stroke-dasharray:none" /><path
     fill="#131D2D"
     stroke="#131D2D"
     id="path252"
     d="M0,768.59c4.88,1.88,9.71,3.89,14.54,5.92c9.23,4,19.81,3.16,29.25,0.32   c3.46-1,7.44-2.35,10.63,0.13c-3.04,2.82-7.05,4.11-10.83,5.62c-5.59,2.18-11.39,3.86-17.32,4.8c-4.32,0.76-8.67-0.29-13-0.4   c-3.34,4.01-8.66,3.15-13.27,2.87V768.59z"
     style="fill:#305f40;fill-opacity:1;stroke:#305f40;stroke-opacity:1;stroke-width:1.2;stroke-miterlimit:4;stroke-dasharray:none" /><path
     fill="#192130"
     stroke="#192130"
     id="path254"
     d="M1716.06,793.33c3.9-1.63,7.19-4.37,10.95-6.24c1.51,0.24,2.7,1.27,3.98,2.09   c-0.28,1.82-0.53,3.66-0.81,5.49c3.1-1.02,6.37-2.31,9.71-1.58c2.79,0.52,4.37,3.62,7.1,4.1c2.7-0.88,4.79-3.22,7.76-3.44   c0.5,1.28,1.03,2.58,1.59,3.89c0.64,0.22,1.92,0.67,2.56,0.89c-1.7,2.03-4.1,3.14-6.69,3.45c-0.45-1.21-0.89-2.39-1.34-3.57   c-5.51,1.18-10.79-2.35-16.23-0.72C1728.18,799.43,1721.12,797.58,1716.06,793.33z"
     style="fill:#305f40;fill-opacity:1;stroke:#305f40;stroke-opacity:1;stroke-width:1.2;stroke-miterlimit:4;stroke-dasharray:none" /><path
     fill="#101827"
     stroke="#101827"
     id="path256"
     d="M1905.91,797.69c4.27-2.67,9.39-3.23,14.09-4.84v6.33   C1915.26,799.08,1910.48,798.98,1905.91,797.69z"
     style="fill:#305f40;fill-opacity:1;stroke:#305f40;stroke-opacity:1;stroke-width:1.2;stroke-miterlimit:4;stroke-dasharray:none" /><path
     fill="#141D2E"
     stroke="#141D2E"
     id="path258"
     d="M0,799.76c5.06,1.19,10.33,1.45,15.31,2.99c2.22,1.16,1.11,4.08,1.26,6.08   c2.64-0.7,5.3-1.75,8.07-1.5c2.66,0.49,4.48,2.74,6.74,4.04c2.74-0.74,5.07-2.57,7.82-3.36c0.76,1.89,1.77,3.7,3.46,4.92   c-2.05,1.62-4.25,3.05-6.65,4.11c-5.98,2.73-12.11,6.07-18.89,5.71c-6.29-0.1-11.63-3.73-17.12-6.32V799.76z"
     style="fill:#305f40;fill-opacity:1;stroke:#305f40;stroke-opacity:1;stroke-width:1.2;stroke-miterlimit:4;stroke-dasharray:none" /><path
     fill="#18202F"
     stroke="#18202F"
     id="path262"
     d="M200.03,830.05c3.67-0.68,7.64-3.01,11.25-0.97c-1.65,2.28-4.52,3.07-6.94,4.27   c-4.77,2.38-10.27,1.15-15.3,2.55c0.28-0.44,0.84-1.34,1.11-1.78c1.8-0.14,3.6-0.3,5.39-0.5   C196.68,832.02,197.89,830.26,200.03,830.05z"
     style="fill:#305f40;fill-opacity:1;stroke:#305f40;stroke-opacity:1;stroke-width:1.2;stroke-miterlimit:4;stroke-dasharray:none" /><path
     fill="#111A2A"
     stroke="#111A2A"
     id="path264"
     d="M0,840.84c3.23,5.81,10.94,6.01,14.66,11.33c-4.51,2.49-9.77,2.63-14.66,3.9V840.84z"
     style="fill:#305f40;fill-opacity:1;stroke:#305f40;stroke-opacity:1;stroke-width:1.2;stroke-miterlimit:4;stroke-dasharray:none" /><path
     fill="#17202D"
     stroke="#17202D"
     id="path268"
     d="M112.02,859.77c-0.63-2.58,0.73-5.41,3.75-4.73c2.35,1.67,3.77,4.27,5.13,6.74   C117.9,861.28,114.95,860.57,112.02,859.77z"
     style="fill:#305f40;fill-opacity:1;stroke:#305f40;stroke-opacity:1;stroke-width:1.2;stroke-miterlimit:4;stroke-dasharray:none" /><path
     fill="#182130"
     stroke="#182130"
     id="path270"
     d="M191.2,858.22c2.62-0.71,5.22-1.46,7.78-2.33c1.19,0.96,2.26,2.06,3.2,3.28   c-4.49,3.16-9.79,5.23-15.03,6.83c-0.42-0.94-0.85-1.87-1.28-2.79c2.09-0.14,4.18-0.25,6.27-0.33   C191.84,861.31,191.53,859.76,191.2,858.22z"
     style="fill:#305f40;fill-opacity:1;stroke:#305f40;stroke-opacity:1;stroke-width:1.2;stroke-miterlimit:4;stroke-dasharray:none" /><path
     fill="#192231"
     stroke="#192231"
     id="path272"
     d="M1755.54,862.01c2.97-2.28,6.46-4.4,10.3-4.55c3.69,0,4.74,4.02,6.37,6.58   c2.28-0.29,4.57-0.62,6.88-0.9c-1.78,1.78-3.78,3.56-6.25,4.24c-2.88,0.02-5.83-1.17-8.63-0.18c-3.66,1.71-6.38,5.19-10.35,6.22   c-2.73,0-5.75-0.2-7.9-2.02c1.62,0.05,3.27,0.18,4.92,0.38c1.12-1.66,1.8-3.55,2.42-5.44c2.57,0.28,5.16,0.51,7.77,0.56   C1759.46,865.01,1757.36,863.65,1755.54,862.01z"
     style="fill:#305f40;fill-opacity:1;stroke:#305f40;stroke-opacity:1;stroke-width:1.2;stroke-miterlimit:4;stroke-dasharray:none" /><path
     fill="#161E2C"
     stroke="#161E2C"
     id="path274"
     d="M84.76,869.39c2.11-2.79,5.21-4.5,8.17-6.22c0.4,1.85,1.85,4.45,0.28,6.01   C90.5,869.99,87.55,869.34,84.76,869.39z"
     style="fill:#305f40;fill-opacity:1;stroke:#305f40;stroke-opacity:1;stroke-width:1.2;stroke-miterlimit:4;stroke-dasharray:none" /><path
     fill="#182130"
     stroke="#182130"
     id="path276"
     d="M255.97,894.98c-0.25-1.93,1.33-3.06,2.79-3.89c1.89,2.17,3.67,4.43,5.51,6.65   c3.51-1.15,6.12,1.41,7.75,4.22c-4.51,0.97-9.15,2.44-13.79,1.85C255.25,902.06,256.03,897.89,255.97,894.98z"
     style="fill:#305f40;fill-opacity:1;stroke:#305f40;stroke-opacity:1;stroke-width:1.2;stroke-miterlimit:4;stroke-dasharray:none" /></g>
</g>
</svg>