<svg xmlns="http://www.w3.org/2000/svg" viewBox="0 0 576 512" version="1.1" id="svg4"><!--! Font Awesome Pro 6.2.0 by @fontawesome - https://fontawesome.com License - https://fontawesome.com/license (Commercial License) Copyright 2022 Fonticons, Inc.--><path d="M576 80v48c0 17.7-14.3 32-32 32h-64V80c0-26.5 21.5-48 48-48s48 21.5 48 48zM464 32c-10 13.4-16 30-16 48v304c0 35.3-28.7 64-64 64s-64-28.7-64-64v-5.3c0-32.4-26.3-58.7-58.7-58.7H96V128c0-53 43-96 96-96ZM112 480C50.1 480 0 429.9 0 368c0-8.8 7.2-16 16-16h245.3c14.7 0 26.7 11.9 26.7 26.7v5.3c0 53 43 96 96 96H208Z" id="path2"/></svg>